<?xml version="1.0" standalone="no"?>
<!DOCTYPE svg PUBLIC "-//W3C//DTD SVG 20010904//EN"
 "http://www.w3.org/TR/2001/REC-SVG-20010904/DTD/svg10.dtd">
<svg version="1.0" xmlns="http://www.w3.org/2000/svg"
 width="700.000000pt" height="700.000000pt" viewBox="0 0 700.000000 700.000000"
 preserveAspectRatio="xMidYMid meet">
<metadata>
Created by potrace 1.14, written by Peter Selinger 2001-2017
</metadata>
<g transform="translate(0.000000,700.000000) scale(0.100000,-0.100000)"
fill="#000000" stroke="none">
<path d="M3438 6075 c-2 -1 -39 -6 -83 -9 -44 -4 -87 -9 -95 -11 -8 -2 -42 -6
-75 -10 -286 -30 -794 -168 -1100 -297 -138 -59 -556 -269 -692 -349 -51 -30
-132 -77 -180 -105 -94 -55 -270 -169 -315 -205 -27 -21 -28 -23 -28 -130 0
-80 3 -109 13 -110 6 0 19 -2 27 -4 8 -1 29 -5 45 -8 259 -44 369 -173 331
-387 -16 -88 -26 -149 -31 -195 -4 -27 -8 -57 -10 -65 -2 -8 -7 -40 -10 -70
-3 -30 -8 -62 -10 -70 -2 -8 -7 -39 -10 -69 -4 -30 -8 -62 -10 -72 -2 -10 -7
-49 -10 -86 -4 -37 -9 -75 -10 -83 -2 -13 -7 -54 -20 -180 -40 -383 -49 -947
-20 -1235 2 -22 7 -69 10 -105 4 -36 8 -78 10 -95 3 -16 9 -68 15 -115 6 -47
15 -107 20 -135 5 -27 12 -66 15 -85 3 -19 10 -60 16 -90 6 -30 13 -68 15 -85
8 -43 53 -229 75 -305 18 -65 20 -66 66 -83 110 -38 324 -90 513 -123 47 -8
99 -17 115 -20 34 -6 67 -11 140 -19 28 -3 66 -8 85 -10 19 -3 129 -7 244 -10
l208 -6 -6 53 c-3 29 -10 89 -16 133 -6 44 -13 114 -16 155 -3 41 -7 86 -10
100 -10 67 -19 242 -19 390 1 191 15 253 62 264 38 10 66 -14 108 -96 40 -77
133 -220 198 -303 147 -188 390 -429 518 -514 248 -165 564 -269 874 -288 324
-19 614 2 950 68 163 32 175 37 176 73 0 17 1 60 2 95 2 74 8 69 -118 96 -99
21 -238 75 -330 128 -195 112 -452 364 -561 550 -51 87 -47 102 36 127 25 7
50 16 55 20 6 3 28 12 50 19 142 48 419 212 600 355 144 114 348 323 423 434
160 234 281 538 327 822 4 25 9 54 11 65 23 120 23 439 0 605 -14 99 -21 139
-46 245 -50 209 -90 327 -157 460 -30 61 -117 201 -133 215 -3 3 -18 22 -34
43 -43 58 -183 196 -256 252 -203 156 -574 323 -872 391 -10 2 -26 6 -35 8
-70 15 -242 42 -338 51 -33 4 -80 9 -105 11 -51 6 -587 14 -592 9z m217 -849
c239 -50 451 -189 581 -382 134 -197 182 -422 149 -689 -54 -429 -287 -820
-706 -1179 -212 -182 -177 -173 -300 -74 -410 329 -670 698 -764 1082 -31 129
-40 206 -39 356 2 249 93 462 274 641 127 126 309 220 475 246 17 3 32 7 34 9
6 6 261 -3 296 -10z"/>
<path d="M3395 4694 c-260 -68 -375 -361 -227 -583 206 -309 687 -169 697 204
7 247 -232 440 -470 379z"/>
</g>
</svg>
