<svg viewBox="0 0 32 43" xmlns="http://www.w3.org/2000/svg" xmlns:xlink="http://www.w3.org/1999/xlink"><mask id="a" height="43.85" maskUnits="userSpaceOnUse" width="33.15" x="-.57" y="-.14"><path d="m16 .44c-2.1 0-4.18.41-6.12 1.22-1.94.8-3.71 1.98-5.19 3.47-1.49 1.49-2.66 3.25-3.47 5.19-.81 1.94-1.22 4.02-1.22 6.13-.03 6.96 2.69 16.66 16 26.55 13.28-9.89 16-19.59 16-26.55 0-2.1-.41-4.18-1.22-6.13-.8-1.94-1.98-3.71-3.47-5.19-1.49-1.49-3.25-2.67-5.19-3.47s-4.02-1.22-6.12-1.22zm0 22.85c-1.33 0-2.63-.39-3.74-1.13s-1.97-1.79-2.48-3.02-.64-2.58-.38-3.89.9-2.51 1.84-3.45 2.14-1.58 3.45-1.84 2.66-.13 3.89.38 2.28 1.37 3.02 2.48 1.14 2.41 1.14 3.74c0 1.79-.71 3.5-1.97 4.76s-2.98 1.97-4.76 1.97z" fill="#fff"/></mask><g mask="url(#a)"><path d="m16 .44c-2.1 0-4.18.41-6.12 1.22-1.94.8-3.71 1.98-5.19 3.47-1.49 1.49-2.66 3.25-3.47 5.19-.81 1.94-1.22 4.02-1.22 6.13-.03 6.96 2.69 16.66 16 26.55 13.28-9.89 16-19.59 16-26.55 0-2.1-.41-4.18-1.22-6.13-.8-1.94-1.98-3.71-3.47-5.19-1.49-1.49-3.25-2.67-5.19-3.47s-4.02-1.22-6.12-1.22zm0 22.85c-1.33 0-2.63-.39-3.74-1.13s-1.97-1.79-2.48-3.02-.64-2.58-.38-3.89.9-2.51 1.84-3.45 2.14-1.58 3.45-1.84 2.66-.13 3.89.38 2.28 1.37 3.02 2.48 1.14 2.41 1.14 3.74c0 1.79-.71 3.5-1.97 4.76s-2.98 1.97-4.76 1.97z" fill="#fd4f82" stroke="#f23c71" stroke-width="1.15"/></g><circle cx="15.93" cy="16.44" fill="#fff" r="13.14"/><path d="m25.05 10.14c-1.02-1.11-2.5-1.76-3.99-1.85h-.19c-1.85 0-3.52.93-4.63 2.41-1.02-1.95-2.97-3.15-5.1-3.15h-.09c-1.58 0-3.15.65-4.17 1.85-1.11 1.11-1.67 2.69-1.58 4.26.19 2.78 1.58 4.17 2.87 5.38 1.48 1.48 2.87 2.69 2.41 6.21 0 .56.28.93.74.93.19 0 .28 0 .56-.09 9.64-2.97 14.74-6.95 14.74-11.4v-.09c.09-1.76-.46-3.24-1.58-4.45z" fill="#fd4f82"/></svg>