<svg viewBox="0 0 32 32" xmlns="http://www.w3.org/2000/svg"><path d="m28.84 24.01c-.48-.48-1.09-.81-1.76-.94s-1.36-.07-1.99.19-1.17.7-1.54 1.27c-.38.57-.58 1.23-.58 1.91s.2 1.35.58 1.91.91 1.01 1.54 1.27 1.32.33 1.99.19c.67-.13 1.28-.46 1.76-.94.32-.32.57-.7.75-1.11.17-.42.26-.86.26-1.32s-.09-.9-.26-1.32-.43-.8-.75-1.11zm-20.83-20.88c-.48-.48-1.09-.81-1.76-.94s-1.36-.07-1.99.19-1.17.7-1.54 1.27c-.38.57-.58 1.23-.58 1.91s.2 1.35.58 1.91c.38.57.91 1.01 1.54 1.27s1.32.33 1.99.19c.67-.13 1.28-.46 1.76-.94.32-.32.57-.7.75-1.11.17-.42.26-.86.26-1.32s-.09-.9-.26-1.32-.43-.8-.75-1.11zm0 25.74c.48-.48.81-1.09.94-1.76s.07-1.36-.19-1.99-.7-1.17-1.26-1.55-1.23-.58-1.91-.58-1.34.2-1.91.58c-.56.38-1.01.92-1.26 1.55-.26.63-.33 1.32-.19 1.99.13.67.46 1.28.94 1.76.32.32.7.57 1.11.75.42.17.86.26 1.31.26s.9-.09 1.31-.26c.42-.17.79-.43 1.11-.75zm20.83-20.88c.48-.48.81-1.09.94-1.76s.07-1.36-.19-1.99-.7-1.17-1.26-1.55-1.23-.58-1.91-.58-1.34.2-1.91.58c-.56.38-1.01.92-1.26 1.55-.26.63-.33 1.32-.19 1.99.13.67.46 1.28.94 1.76.32.32.7.57 1.11.75.42.17.86.26 1.31.26s.9-.09 1.31-.26c.42-.17.79-.43 1.11-.75z" fill="#004667"/><path d="m30.88 21.96-2.29-.91c1.29-3.26 1.29-6.84 0-10.1l2.29-.91c1.52 3.84 1.52 8.07 0 11.92zm-8.94 8.95-.9-2.29c-3.26 1.28-6.84 1.25-10.07-.08l-.93 2.28c1.95.8 4.01 1.2 6.06 1.2s3.95-.37 5.84-1.11zm-18.47-9.78c-1.32-3.28-1.32-6.89 0-10.17l-2.28-.92c-1.56 3.87-1.56 8.14 0 12.02l2.28-.92zm18.48-19.97c-3.84-1.52-8.06-1.52-11.9 0l.91 2.29c3.25-1.29 6.83-1.29 10.08 0z" fill="#00ad4d"/></svg>