<svg viewBox="0 0 32 43" xmlns="http://www.w3.org/2000/svg" xmlns:xlink="http://www.w3.org/1999/xlink"><mask id="a" height="43.85" maskUnits="userSpaceOnUse" width="33.15" x="-.57" y="-.14"><path d="m16 .44c-2.1 0-4.18.41-6.12 1.22-1.94.8-3.71 1.98-5.19 3.47-1.49 1.49-2.66 3.25-3.47 5.19-.81 1.94-1.22 4.02-1.22 6.13-.03 6.96 2.69 16.66 16 26.55 13.28-9.89 16-19.59 16-26.55 0-2.1-.41-4.18-1.22-6.13-.8-1.94-1.98-3.71-3.47-5.19-1.49-1.49-3.25-2.67-5.19-3.47s-4.02-1.22-6.12-1.22zm0 22.85c-1.33 0-2.63-.39-3.74-1.13s-1.97-1.79-2.48-3.02-.64-2.58-.38-3.89.9-2.51 1.84-3.45 2.14-1.58 3.45-1.84 2.66-.13 3.89.38 2.28 1.37 3.02 2.48 1.14 2.41 1.14 3.74c0 1.79-.71 3.5-1.97 4.76s-2.98 1.97-4.76 1.97z" fill="#fff"/></mask><mask id="b" height="19.85" maskUnits="userSpaceOnUse" width="19.85" x="5.92" y="6.35"><path d="m11.41 16.83c2.76 0 4.99-2.24 4.99-4.99s-2.24-4.99-4.99-4.99-4.99 2.24-4.99 4.99 2.24 4.99 4.99 4.99zm8.87 8.88c2.76 0 4.99-2.24 4.99-4.99s-2.24-4.99-4.99-4.99-4.99 2.24-4.99 4.99 2.24 4.99 4.99 4.99zm3.64-14.48c0 1.66-1.35 3.01-3.01 3.01s-3.01-1.35-3.01-3.01 1.35-3.01 3.01-3.01 3.01 1.35 3.01 3.01zm-13.09 13.09c1.66 0 3.01-1.35 3.01-3.01s-1.35-3.01-3.01-3.01-3.01 1.35-3.01 3.01 1.35 3.01 3.01 3.01z" fill="#fff" fill-rule="evenodd"/></mask><g mask="url(#a)"><path d="m16 .44c-2.1 0-4.18.41-6.12 1.22-1.94.8-3.71 1.98-5.19 3.47-1.49 1.49-2.66 3.25-3.47 5.19-.81 1.94-1.22 4.02-1.22 6.13-.03 6.96 2.69 16.66 16 26.55 13.28-9.89 16-19.59 16-26.55 0-2.1-.41-4.18-1.22-6.13-.8-1.94-1.98-3.71-3.47-5.19-1.49-1.49-3.25-2.67-5.19-3.47s-4.02-1.22-6.12-1.22zm0 22.85c-1.33 0-2.63-.39-3.74-1.13s-1.97-1.79-2.48-3.02-.64-2.58-.38-3.89.9-2.51 1.84-3.45 2.14-1.58 3.45-1.84 2.66-.13 3.89.38 2.28 1.37 3.02 2.48 1.14 2.41 1.14 3.74c0 1.79-.71 3.5-1.97 4.76s-2.98 1.97-4.76 1.97z" fill="#8549a2" stroke="#733791" stroke-width="1.15"/></g><circle cx="15.93" cy="16.44" fill="#fff" r="13.14"/><path d="m11.41 16.83c2.76 0 4.99-2.24 4.99-4.99s-2.24-4.99-4.99-4.99-4.99 2.24-4.99 4.99 2.24 4.99 4.99 4.99zm8.87 8.88c2.76 0 4.99-2.24 4.99-4.99s-2.24-4.99-4.99-4.99-4.99 2.24-4.99 4.99 2.24 4.99 4.99 4.99zm3.64-14.48c0 1.66-1.35 3.01-3.01 3.01s-3.01-1.35-3.01-3.01 1.35-3.01 3.01-3.01 3.01 1.35 3.01 3.01zm-13.09 13.09c1.66 0 3.01-1.35 3.01-3.01s-1.35-3.01-3.01-3.01-3.01 1.35-3.01 3.01 1.35 3.01 3.01 3.01z" fill="#8549a2" fill-rule="evenodd"/><g mask="url(#b)"><path d="m15.91 11.84c0 2.49-2.02 4.5-4.5 4.5v.98c3.03 0 5.49-2.46 5.49-5.49h-.98zm-4.5-4.5c2.49 0 4.5 2.02 4.5 4.5h.98c0-3.03-2.46-5.49-5.49-5.49v.98zm-4.5 4.5c0-2.49 2.02-4.5 4.5-4.5v-.98c-3.03 0-5.49 2.46-5.49 5.49h.98zm4.5 4.5c-2.49 0-4.5-2.02-4.5-4.5h-.98c0 3.03 2.46 5.49 5.49 5.49v-.98zm13.37 4.37c0 2.49-2.02 4.5-4.5 4.5v.98c3.03 0 5.49-2.46 5.49-5.49h-.98zm-4.5-4.5c2.49 0 4.5 2.02 4.5 4.5h.98c0-3.03-2.46-5.49-5.49-5.49v.98zm-4.5 4.5c0-2.49 2.02-4.5 4.5-4.5v-.98c-3.03 0-5.49 2.46-5.49 5.49h.98zm4.5 4.5c-2.49 0-4.5-2.02-4.5-4.5h-.98c0 3.03 2.46 5.49 5.49 5.49v-.98zm.63-10.48c1.93 0 3.5-1.57 3.5-3.5h-.98c0 1.39-1.13 2.52-2.52 2.52zm-3.51-3.5c0 1.93 1.57 3.5 3.5 3.5v-.98c-1.39 0-2.52-1.13-2.52-2.52zm3.51-3.5c-1.93 0-3.5 1.57-3.5 3.5h.98c0-1.39 1.13-2.52 2.52-2.52zm3.5 3.5c0-1.93-1.57-3.5-3.5-3.5v.98c1.39 0 2.52 1.13 2.52 2.52zm-11.06 10.07c0 1.39-1.13 2.52-2.52 2.52v.98c1.93 0 3.5-1.57 3.5-3.5zm-2.52-2.51c1.39 0 2.52 1.13 2.52 2.52h.98c0-1.93-1.57-3.5-3.5-3.5zm-2.52 2.51c0-1.39 1.13-2.52 2.52-2.52v-.98c-1.93 0-3.5 1.57-3.5 3.5zm2.52 2.52c-1.39 0-2.52-1.13-2.52-2.52h-.98c0 1.93 1.57 3.5 3.5 3.5z" fill="#8549a2"/></g></svg>