<svg viewBox="0 0 32 43" xmlns="http://www.w3.org/2000/svg" xmlns:xlink="http://www.w3.org/1999/xlink"><mask id="a" height="43.85" maskUnits="userSpaceOnUse" width="33.15" x="-.57" y="-.14"><path d="m16 .44c-2.1 0-4.18.41-6.12 1.22-1.94.8-3.71 1.98-5.19 3.47-1.49 1.49-2.66 3.25-3.47 5.19-.81 1.94-1.22 4.02-1.22 6.13-.03 6.96 2.69 16.66 16 26.55 13.28-9.89 16-19.59 16-26.55 0-2.1-.41-4.18-1.22-6.13-.8-1.94-1.98-3.71-3.47-5.19-1.49-1.49-3.25-2.67-5.19-3.47s-4.02-1.22-6.12-1.22zm0 22.85c-1.33 0-2.63-.39-3.74-1.13s-1.97-1.79-2.48-3.02-.64-2.58-.38-3.89.9-2.51 1.84-3.45 2.14-1.58 3.45-1.84 2.66-.13 3.89.38 2.28 1.37 3.02 2.48 1.14 2.41 1.14 3.74c0 1.79-.71 3.5-1.97 4.76s-2.98 1.97-4.76 1.97z" fill="#fff"/></mask><mask id="b" height="19.54" maskUnits="userSpaceOnUse" width="19.54" x="6" y="6.44"><path d="m10.66 7.08 3.45 3.45 1.09-1.09-.05 6.15-6.15.05 1.09-1.09s-2.04-2.04-3.45-3.45l4.02-4.01z" fill="#fff"/><path d="m21.53 25.97-3.45-3.45-1.09 1.09.05-6.15 6.15-.05-1.09 1.09s2.04 2.04 3.45 3.45l-4.02 4.01z" fill="#fff"/><path d="m22.09 14.55 3.45-3.45-4.02-4.01s0 0 0 0c-1.41 1.41-3.45 3.45-3.45 3.45l-1.09-1.09.05 6.15 6.15.05-1.09-1.09z" fill="#fff"/><path d="m6.64 21.97 3.45-3.45-1.09-1.09 6.15.05.05 6.15-1.09-1.09s-2.04 2.04-3.45 3.45l-4.02-4.01z" fill="#fff"/></mask><mask id="c" height="19.53" maskUnits="userSpaceOnUse" width="19.54" x="6.64" y="7.08"><path d="m10.66 7.08 3.45 3.45 1.09-1.09-.05 6.15-6.15.05 1.09-1.09s-2.04-2.04-3.45-3.45l4.02-4.01z" fill="#fff"/><path d="m21.53 25.97-3.45-3.45-1.09 1.09.05-6.15 6.15-.05-1.09 1.09s2.04 2.04 3.45 3.45l-4.02 4.01z" fill="#fff"/><path d="m22.09 14.55 3.45-3.45-4.02-4.01s0 0 0 0c-1.41 1.41-3.45 3.45-3.45 3.45l-1.09-1.09.05 6.15 6.15.05-1.09-1.09z" fill="#fff"/><path d="m6.64 21.97 3.45-3.45-1.09-1.09 6.15.05.05 6.15-1.09-1.09s-2.04 2.04-3.45 3.45l-4.02-4.01z" fill="#fff"/></mask><mask id="d" height="19.53" maskUnits="userSpaceOnUse" width="19.54" x="6.64" y="6.45"><path d="m10.66 7.08 3.45 3.45 1.09-1.09-.05 6.15-6.15.05 1.09-1.09s-2.04-2.04-3.45-3.45l4.02-4.01z" fill="#fff"/><path d="m21.53 25.97-3.45-3.45-1.09 1.09.05-6.15 6.15-.05-1.09 1.09s2.04 2.04 3.45 3.45l-4.02 4.01z" fill="#fff"/><path d="m22.09 14.55 3.45-3.45-4.02-4.01s0 0 0 0c-1.41 1.41-3.45 3.45-3.45 3.45l-1.09-1.09.05 6.15 6.15.05-1.09-1.09z" fill="#fff"/><path d="m6.64 21.97 3.45-3.45-1.09-1.09 6.15.05.05 6.15-1.09-1.09s-2.04 2.04-3.45 3.45l-4.02-4.01z" fill="#fff"/></mask><mask id="e" height="19.54" maskUnits="userSpaceOnUse" width="19.54" x="6" y="7.08"><path d="m10.66 7.08 3.45 3.45 1.09-1.09-.05 6.15-6.15.05 1.09-1.09s-2.04-2.04-3.45-3.45l4.02-4.01z" fill="#fff"/><path d="m21.53 25.97-3.45-3.45-1.09 1.09.05-6.15 6.15-.05-1.09 1.09s2.04 2.04 3.45 3.45l-4.02 4.01z" fill="#fff"/><path d="m22.09 14.55 3.45-3.45-4.02-4.01s0 0 0 0c-1.41 1.41-3.45 3.45-3.45 3.45l-1.09-1.09.05 6.15 6.15.05-1.09-1.09z" fill="#fff"/><path d="m6.64 21.97 3.45-3.45-1.09-1.09 6.15.05.05 6.15-1.09-1.09s-2.04 2.04-3.45 3.45l-4.02-4.01z" fill="#fff"/></mask><g mask="url(#a)"><path d="m16 .44c-2.1 0-4.18.41-6.12 1.22-1.94.8-3.71 1.98-5.19 3.47-1.49 1.49-2.66 3.25-3.47 5.19-.81 1.94-1.22 4.02-1.22 6.13-.03 6.96 2.69 16.66 16 26.55 13.28-9.89 16-19.59 16-26.55 0-2.1-.41-4.18-1.22-6.13-.8-1.94-1.98-3.71-3.47-5.19-1.49-1.49-3.25-2.67-5.19-3.47s-4.02-1.22-6.12-1.22zm0 22.85c-1.33 0-2.63-.39-3.74-1.13s-1.97-1.79-2.48-3.02-.64-2.58-.38-3.89.9-2.51 1.84-3.45 2.14-1.58 3.45-1.84 2.66-.13 3.89.38 2.28 1.37 3.02 2.48 1.14 2.41 1.14 3.74c0 1.79-.71 3.5-1.97 4.76s-2.98 1.97-4.76 1.97z" fill="#9dcb3b" stroke="#91c228" stroke-width="1.15"/></g><circle cx="15.93" cy="16.44" fill="#fff" r="13.14"/><g fill="#9dcb3b"><path d="m10.66 7.08 3.45 3.45 1.09-1.09-.05 6.15-6.15.05 1.09-1.09s-2.04-2.04-3.45-3.45l4.02-4.01z"/><path d="m21.53 25.97-3.45-3.45-1.09 1.09.05-6.15 6.15-.05-1.09 1.09s2.04 2.04 3.45 3.45l-4.02 4.01z"/><path d="m22.09 14.55 3.45-3.45-4.02-4.01s0 0 0 0c-1.41 1.41-3.45 3.45-3.45 3.45l-1.09-1.09.05 6.15 6.15.05-1.09-1.09z"/><path d="m6.64 21.97 3.45-3.45-1.09-1.09 6.15.05.05 6.15-1.09-1.09s-2.04 2.04-3.45 3.45l-4.02-4.01z"/></g><g mask="url(#b)"><path d="m10.66 7.08 3.45 3.45 1.09-1.09-.05 6.15-6.15.05 1.09-1.09s-2.04-2.04-3.45-3.45l4.02-4.01z" fill="none" stroke="#9dcb3b" stroke-width=".9"/></g><g mask="url(#c)"><path d="m21.53 25.97-3.45-3.45-1.09 1.09.05-6.15 6.15-.05-1.09 1.09s2.04 2.04 3.45 3.45l-4.02 4.01z" fill="none" stroke="#9dcb3b" stroke-width=".9"/></g><g mask="url(#d)"><path d="m22.09 14.55 3.45-3.45-4.02-4.01s0 0 0 0c-1.41 1.41-3.45 3.45-3.45 3.45l-1.09-1.09.05 6.15 6.15.05-1.09-1.09z" fill="none" stroke="#9dcb3b" stroke-width=".9"/></g><g mask="url(#e)"><path d="m6.64 21.97 3.45-3.45-1.09-1.09 6.15.05.05 6.15-1.09-1.09s-2.04 2.04-3.45 3.45l-4.02-4.01z" fill="none" stroke="#9dcb3b" stroke-width=".9"/></g></svg>