<svg viewBox="0 0 32 43" xmlns="http://www.w3.org/2000/svg" xmlns:xlink="http://www.w3.org/1999/xlink"><mask id="a" height="43.85" maskUnits="userSpaceOnUse" width="33.15" x="-.57" y="-.14"><path d="m16 .44c-2.1 0-4.18.41-6.12 1.22-1.94.8-3.71 1.98-5.19 3.47-1.49 1.49-2.66 3.25-3.47 5.19-.81 1.94-1.22 4.02-1.22 6.13-.03 6.96 2.69 16.66 16 26.55 13.28-9.89 16-19.59 16-26.55 0-2.1-.41-4.18-1.22-6.13-.8-1.94-1.98-3.71-3.47-5.19-1.49-1.49-3.25-2.67-5.19-3.47s-4.02-1.22-6.12-1.22zm0 22.85c-1.33 0-2.63-.39-3.74-1.13s-1.97-1.79-2.48-3.02-.64-2.58-.38-3.89.9-2.51 1.84-3.45 2.14-1.58 3.45-1.84 2.66-.13 3.89.38 2.28 1.37 3.02 2.48 1.14 2.41 1.14 3.74c0 1.79-.71 3.5-1.97 4.76s-2.98 1.97-4.76 1.97z" fill="#fff"/></mask><mask id="b" height="19.82" maskUnits="userSpaceOnUse" width="19.82" x="6.14" y="6.81"><path d="m24.88 10.76c-.05-.1-.12-.19-.21-.26s-.19-.11-.3-.13-.22-.01-.33.02-.2.09-.28.17l-3.37 3.37h-1.55s0-1.56 0-1.56l3.37-3.37c.08-.08.14-.18.17-.28s.04-.22.02-.33-.06-.21-.13-.3-.15-.16-.26-.21c-.81-.39-1.71-.59-2.61-.59-.94 0-1.87.22-2.71.64s-1.57 1.03-2.14 1.78c-.56.75-.95 1.62-1.12 2.55-.17.92-.12 1.88.14 2.78l-6.11 6.11c-.54.54-.84 1.26-.84 2.02s.3 1.49.84 2.02l.1.1c.26.27.58.48.93.62s.72.22 1.1.22c.76 0 1.49-.3 2.02-.84l6.11-6.11c1.12.32 2.31.32 3.43-.02s2.12-.99 2.87-1.88c.76-.89 1.24-1.98 1.39-3.14s-.04-2.34-.54-3.39zm-15.24 13.06c-.14 0-.27-.04-.39-.12s-.2-.19-.26-.31c-.05-.13-.07-.27-.04-.4.03-.14.09-.26.19-.36s.22-.16.36-.19.28-.01.4.04c.13.05.24.14.31.26.08.11.12.25.12.39 0 .09-.02.18-.05.27-.04.08-.09.16-.15.23-.06.06-.14.12-.23.15-.08.03-.18.05-.27.05z" fill="#fff"/></mask><g mask="url(#a)"><path d="m16 .44c-2.1 0-4.18.41-6.12 1.22-1.94.8-3.71 1.98-5.19 3.47-1.49 1.49-2.66 3.25-3.47 5.19-.81 1.94-1.22 4.02-1.22 6.13-.03 6.96 2.69 16.66 16 26.55 13.28-9.89 16-19.59 16-26.55 0-2.1-.41-4.18-1.22-6.13-.8-1.94-1.98-3.71-3.47-5.19-1.49-1.49-3.25-2.67-5.19-3.47s-4.02-1.22-6.12-1.22zm0 22.85c-1.33 0-2.63-.39-3.74-1.13s-1.97-1.79-2.48-3.02-.64-2.58-.38-3.89.9-2.51 1.84-3.45 2.14-1.58 3.45-1.84 2.66-.13 3.89.38 2.28 1.37 3.02 2.48 1.14 2.41 1.14 3.74c0 1.79-.71 3.5-1.97 4.76s-2.98 1.97-4.76 1.97z" fill="#f29901" stroke="#d78c07" stroke-width="1.15"/></g><circle cx="15.93" cy="16.44" fill="#fff" r="13.14"/><g mask="url(#b)"><path d="m24.88 10.76c-.05-.1-.12-.19-.21-.26s-.19-.11-.3-.13-.22-.01-.33.02-.2.09-.28.17l-3.37 3.37h-1.55s0-1.56 0-1.56l3.37-3.37c.08-.08.14-.18.17-.28s.04-.22.02-.33-.06-.21-.13-.3-.15-.16-.26-.21c-.81-.39-1.71-.59-2.61-.59-.94 0-1.87.22-2.71.64s-1.57 1.03-2.14 1.78c-.56.75-.95 1.62-1.12 2.55-.17.92-.12 1.88.14 2.78l-6.11 6.11c-.54.54-.84 1.26-.84 2.02s.3 1.49.84 2.02l.1.1c.26.27.58.48.93.62s.72.22 1.1.22c.76 0 1.49-.3 2.02-.84l6.11-6.11c1.12.32 2.31.32 3.43-.02s2.12-.99 2.87-1.88c.76-.89 1.24-1.98 1.39-3.14s-.04-2.34-.54-3.39zm-15.24 13.06c-.14 0-.27-.04-.39-.12s-.2-.19-.26-.31c-.05-.13-.07-.27-.04-.4.03-.14.09-.26.19-.36s.22-.16.36-.19.28-.01.4.04c.13.05.24.14.31.26.08.11.12.25.12.39 0 .09-.02.18-.05.27-.04.08-.09.16-.15.23-.06.06-.14.12-.23.15-.08.03-.18.05-.27.05z" fill="#f29901" stroke="#f29901" stroke-width=".98"/></g></svg>