<svg viewBox="0 0 32 43" xmlns="http://www.w3.org/2000/svg" xmlns:xlink="http://www.w3.org/1999/xlink"><mask id="a" height="43.85" maskUnits="userSpaceOnUse" width="33.15" x="-.57" y="-.14"><path d="m16 .44c-2.1 0-4.18.41-6.12 1.22-1.94.8-3.71 1.98-5.19 3.47-1.49 1.49-2.66 3.25-3.47 5.19-.81 1.94-1.22 4.02-1.22 6.13-.03 6.96 2.69 16.66 16 26.55 13.28-9.89 16-19.59 16-26.55 0-2.1-.41-4.18-1.22-6.13-.8-1.94-1.98-3.71-3.47-5.19-1.49-1.49-3.25-2.67-5.19-3.47s-4.02-1.22-6.12-1.22zm0 22.85c-1.33 0-2.63-.39-3.74-1.13s-1.97-1.79-2.48-3.02-.64-2.58-.38-3.89.9-2.51 1.84-3.45 2.14-1.58 3.45-1.84 2.66-.13 3.89.38 2.28 1.37 3.02 2.48 1.14 2.41 1.14 3.74c0 1.79-.71 3.5-1.97 4.76s-2.98 1.97-4.76 1.97z" fill="#fff"/></mask><g mask="url(#a)"><path d="m16 .44c-2.1 0-4.18.41-6.12 1.22-1.94.8-3.71 1.98-5.19 3.47-1.49 1.49-2.66 3.25-3.47 5.19-.81 1.94-1.22 4.02-1.22 6.13-.03 6.96 2.69 16.66 16 26.55 13.28-9.89 16-19.59 16-26.55 0-2.1-.41-4.18-1.22-6.13-.8-1.94-1.98-3.71-3.47-5.19-1.49-1.49-3.25-2.67-5.19-3.47s-4.02-1.22-6.12-1.22zm0 22.85c-1.33 0-2.63-.39-3.74-1.13s-1.97-1.79-2.48-3.02-.64-2.58-.38-3.89.9-2.51 1.84-3.45 2.14-1.58 3.45-1.84 2.66-.13 3.89.38 2.28 1.37 3.02 2.48 1.14 2.41 1.14 3.74c0 1.79-.71 3.5-1.97 4.76s-2.98 1.97-4.76 1.97z" fill="#02b2c5" stroke="#00a0b1" stroke-width="1.15"/></g><circle cx="15.93" cy="16.44" fill="#fff" r="13.14"/><path d="m16.05 27.34 9.42-4.71v-4.71l-9.42 4.71 1.17 1.71z" fill="#02b2c5"/><g fill="none" stroke="#02b2c5" stroke-linecap="round" stroke-linejoin="round" stroke-width=".41"><path d="m16.05 27.34 9.42-4.71v-4.71l-9.42 4.71 1.17 1.71z"/><path d="m6.63 17.92 12.56 3.14"/><path d="m25.47 17.92-12.56-3.14"/></g><path d="m18.43 11.97v1.77l2.94-5.42-2.94-2.83v1.77l-11.8 5.95v4.71z" fill="#02b2c5"/><path d="m18.43 11.97v1.77l2.94-5.42-2.94-2.83v1.77l-11.8 5.95v4.71z" fill="none" stroke="#02b2c5" stroke-linecap="round" stroke-linejoin="round" stroke-width=".41"/></svg>