<svg width="631" height="468" viewBox="0 0 631 468" fill="none" xmlns="http://www.w3.org/2000/svg">
<path color="" d="M400.716 2.13644C398.849 3.33644 390.449 8.8031 382.049 14.2698C373.649 19.7364 362.316 27.2031 356.982 30.6698C351.649 34.2698 346.982 37.2031 346.449 37.2031C346.049 37.2031 341.916 39.8698 337.116 43.2031C332.449 46.5364 328.316 49.2031 328.049 49.2031C326.316 49.2031 311.249 60.4031 310.049 62.4031C308.182 66.0031 308.316 73.6031 310.449 76.2698C311.249 77.4698 318.049 82.4031 325.382 87.0698C332.716 91.7364 339.382 96.2698 340.316 97.0698C341.249 97.8698 342.182 98.5364 342.582 98.5364C342.982 98.5364 356.316 106.936 372.182 117.336C388.049 127.603 402.449 136.67 404.182 137.47C408.182 139.336 413.516 137.87 417.516 133.87C420.582 130.803 420.716 130.003 420.716 112.136C420.716 98.6698 421.249 93.2031 422.449 92.1364C425.516 89.4698 461.249 91.6031 474.716 95.3364C478.449 96.2698 482.849 97.4698 484.716 97.8698C493.782 100.27 509.516 107.87 522.049 116.003C581.249 154.67 602.582 231.736 571.782 295.87C558.316 323.87 532.982 348.803 504.182 362.536C480.582 373.736 474.316 374.803 426.716 375.736C386.449 376.536 385.249 376.67 380.449 379.603C367.249 387.736 364.849 402.136 374.716 413.07C381.382 420.403 385.649 421.203 418.849 421.203C457.649 421.203 478.449 418.536 502.316 410.536C550.716 394.27 591.382 358.403 612.449 313.203C632.716 269.47 635.649 218.403 620.182 173.603C601.116 118.27 556.049 74.0031 500.982 56.6698C481.249 50.4031 461.916 47.6031 428.716 46.1364L421.382 45.8698L420.982 26.2698L420.582 6.66977L416.582 3.33644C411.916 -0.663564 405.782 -1.06356 400.716 2.13644Z" fill="black"/>
<path d="M167.38 48.6689C148.847 50.8022 141.514 52.4022 126.847 57.3356C99.1138 66.6689 74.9804 81.6022 54.7138 101.869C27.9138 128.669 11.3804 158.936 3.2471 195.869C-0.752895 214.136 -1.1529 252.936 2.58044 269.869C8.04711 295.069 18.4471 319.602 32.0471 339.202C44.5804 357.202 54.8471 367.869 75.6471 384.536C84.8471 392.002 110.714 405.336 125.38 410.269C145.514 417.069 161.38 419.736 188.047 420.936L208.047 421.869L207.78 437.869C207.38 455.602 208.58 461.202 213.647 465.202C220.714 470.669 223.247 469.736 257.514 447.069C268.447 439.869 278.58 433.336 280.047 432.536C290.847 426.402 318.18 407.469 319.247 405.336C321.514 401.202 320.98 394.002 318.18 390.936C315.247 387.869 311.78 385.469 260.714 352.669C226.58 330.669 223.78 329.069 219.38 329.869C209.514 331.736 207.247 337.336 207.914 357.869C208.047 365.869 207.78 373.736 206.98 375.069C205.78 377.469 204.58 377.469 187.647 376.669C159.647 375.336 143.914 371.469 122.714 360.802C112.58 355.736 98.9804 346.402 88.3138 337.202C73.9138 324.536 54.3138 293.469 49.7804 276.002C44.7138 256.136 44.3138 253.069 44.1804 234.536C44.1804 213.336 45.7804 203.602 51.7804 185.869C55.1138 176.269 65.5138 157.069 72.0471 148.402C89.9138 125.202 115.647 106.802 142.047 98.6689C147.514 96.9356 153.914 94.9356 156.047 94.1356C158.314 93.4689 178.98 92.4022 202.047 92.0022C246.047 91.0689 246.447 91.0689 254.314 84.8022C257.38 82.4022 260.714 74.2689 260.714 69.2022C260.714 63.4689 257.38 56.0022 253.114 52.4022C251.114 50.6689 246.447 48.6689 242.847 47.8689C234.18 46.0022 185.647 46.5356 167.38 48.6689Z" fill="black"/>
<path d="M290.048 167.204C263.782 173.204 248.715 186.271 248.715 202.804C248.715 236.271 315.382 252.137 352.315 227.471C355.915 225.071 360.715 220.271 363.115 216.671C373.782 200.537 365.115 182.271 341.648 171.871C327.915 165.737 305.248 163.737 290.048 167.204Z" fill="black"/>
<path d="M249.646 235.468C248.046 236.934 248.579 243.334 250.579 248.001C260.312 271.334 305.379 282.401 339.112 269.734C356.446 263.201 367.379 251.868 367.379 240.268C367.379 236.801 366.712 234.534 365.779 234.534C364.979 234.534 361.112 237.601 357.112 241.334C344.979 252.801 328.712 258.534 308.046 258.534C287.379 258.534 268.979 252.001 257.512 240.534C251.246 234.134 250.979 234.001 249.646 235.468Z" fill="black"/>
<path d="M248.715 274.537C248.715 281.604 252.448 288.804 259.382 294.937C282.448 315.871 335.915 315.471 357.782 294.137C364.848 287.204 367.382 282.404 367.382 275.737C367.382 269.204 365.515 268.271 361.782 272.671C354.315 281.337 340.048 288.271 322.315 291.871C300.715 296.004 272.582 288.671 258.315 274.937C250.582 267.604 248.715 267.604 248.715 274.537Z" fill="black"/>
</svg>
