<svg viewBox="0 0 32 43" xmlns="http://www.w3.org/2000/svg" xmlns:xlink="http://www.w3.org/1999/xlink"><mask id="a" height="43.85" maskUnits="userSpaceOnUse" width="33.15" x="-.57" y="-.14"><path d="m16 .44c-2.1 0-4.18.41-6.12 1.22-1.94.8-3.71 1.98-5.19 3.47-1.49 1.49-2.66 3.25-3.47 5.19-.81 1.94-1.22 4.02-1.22 6.13-.03 6.96 2.69 16.66 16 26.55 13.28-9.89 16-19.59 16-26.55 0-2.1-.41-4.18-1.22-6.13-.8-1.94-1.98-3.71-3.47-5.19-1.49-1.49-3.25-2.67-5.19-3.47s-4.02-1.22-6.12-1.22zm0 22.85c-1.33 0-2.63-.39-3.74-1.13s-1.97-1.79-2.48-3.02-.64-2.58-.38-3.89.9-2.51 1.84-3.45 2.14-1.58 3.45-1.84 2.66-.13 3.89.38 2.28 1.37 3.02 2.48 1.14 2.41 1.14 3.74c0 1.79-.71 3.5-1.97 4.76s-2.98 1.97-4.76 1.97z" fill="#fff"/></mask><mask id="b" height="8.51" maskUnits="userSpaceOnUse" width="11.05" x="8.7" y="5.39"><path d="m17.27 6.8c.22-.37.6-.71 1.04-.94-.09-.01-.17-.02-.25-.02h-4.28c-.82 0-1.83.57-2.24 1.27l-2.23 3.81 4.15 2.37 3.8-6.49z" fill="#fff"/></mask><mask id="c" height="8.39" maskUnits="userSpaceOnUse" width="9.11" x="15.38" y="5.71"><path d="m17.82 7.11-1.53 2.62 1.8 3.07-1.13.64 4.39.19 2.03-3.85-1.13.64-1.94-3.32c-.22-.37-.6-.7-1.03-.94-.55.1-1.19.5-1.44.94z" fill="#fff"/></mask><mask id="d" height="6.7" maskUnits="userSpaceOnUse" width="10.33" x="4.72" y="18.21"><path d="m7.01 19.72c-.44 0-.92-.16-1.35-.42.03.08.07.15.11.22l2.14 3.65c.41.7 1.42 1.27 2.24 1.27h4.46s0-4.73 0-4.73h-7.6z" fill="#fff"/></mask><mask id="e" height="7.19" maskUnits="userSpaceOnUse" width="9.11" x="5.01" y="12.35"><path d="m10.07 19.09 1.8-3.07 1.13.64-2.03-3.85-4.39.19 1.13.64-1.94 3.32c-.22.37-.32.86-.31 1.35.36.42 1.03.77 1.54.77h3.06z" fill="#fff"/></mask><mask id="f" height="12.17" maskUnits="userSpaceOnUse" width="7.76" x="19.35" y="13.05"><path d="m26.35 17.47-2.23-3.81-4.15 2.37 3.8 6.49c.22.37.32.87.31 1.36.05-.07.1-.14.14-.21l2.14-3.65c.41-.7.41-1.85 0-2.55z" fill="#fff"/></mask><mask id="g" height="10.36" maskUnits="userSpaceOnUse" width="8.7" x="15.19" y="17.4"><path d="m21.68 20.21h-3.6s0-1.29 0-1.29l-2.36 3.65 2.36 3.66v-1.29h3.89s0 0 0 0c.43 0 .92-.16 1.34-.41.19-.52.16-1.27-.1-1.7z" fill="#fff"/></mask><g mask="url(#a)"><path d="m16 .44c-2.1 0-4.18.41-6.12 1.22-1.94.8-3.71 1.98-5.19 3.47-1.49 1.49-2.66 3.25-3.47 5.19-.81 1.94-1.22 4.02-1.22 6.13-.03 6.96 2.69 16.66 16 26.55 13.28-9.89 16-19.59 16-26.55 0-2.1-.41-4.18-1.22-6.13-.8-1.94-1.98-3.71-3.47-5.19-1.49-1.49-3.25-2.67-5.19-3.47s-4.02-1.22-6.12-1.22z" fill="#00ad4d" stroke="#009b45" stroke-width="1.15"/></g><circle cx="15.93" cy="16.44" fill="#fff" r="13.14"/><g fill="#00ad4d"><g mask="url(#b)"><path d="m17.27 6.8c.22-.37.6-.71 1.04-.94-.09-.01-.17-.02-.25-.02h-4.28c-.82 0-1.83.57-2.24 1.27l-2.23 3.81 4.15 2.37 3.8-6.49z"/><path d="m13.63 13.9-4.94-2.81 2.46-4.2c.49-.84 1.64-1.5 2.63-1.5h4.28c.1 0 .21 0 .31.02l1.38.19-1.23.65c-.38.2-.7.48-.87.77l-4.02 6.87zm-3.7-3.14 3.37 1.92 3.57-6.11c.06-.1.12-.19.19-.28h-3.29c-.66 0-1.52.49-1.85 1.05l-2 3.42z"/></g><g mask="url(#c)"><path d="m17.82 7.11-1.53 2.62 1.8 3.07-1.13.64 4.39.19 2.03-3.85-1.13.64-1.94-3.32c-.22-.37-.6-.7-1.03-.94-.55.1-1.19.5-1.44.94z"/><path d="m21.61 14.1-6.23-.27 2.09-1.19-1.7-2.91 1.66-2.84c.32-.54 1.06-1.03 1.75-1.15l.15-.03.14.07c.53.28.95.67 1.2 1.1l1.72 2.94 2.08-1.19-2.88 5.46zm-3.08-1.03 2.55.11 1.17-2.23-.18.1-2.17-3.71c-.15-.25-.4-.49-.71-.69-.4.11-.82.41-.98.68s-1.4 2.39-1.4 2.39l1.89 3.24-.17.1z"/></g><g mask="url(#d)"><path d="m7.01 19.72c-.44 0-.92-.16-1.35-.42.03.08.07.15.11.22l2.14 3.65c.41.7 1.42 1.27 2.24 1.27h4.46s0-4.73 0-4.73h-7.6z"/><path d="m15.06 24.9h-4.91c-.98 0-2.13-.66-2.63-1.5l-2.14-3.65c-.05-.09-.1-.18-.14-.28l-.52-1.27 1.17.71c.37.22.77.35 1.11.35h8.05s0 5.63 0 5.63zm-8.41-4.76 1.64 2.81c.33.56 1.19 1.05 1.85 1.05h4.01s0-3.83 0-3.83h-7.15c-.12 0-.23 0-.35-.03z"/></g><g mask="url(#e)"><path d="m10.07 19.09 1.8-3.07 1.13.64-2.03-3.85-4.39.19 1.13.64-1.94 3.32c-.22.37-.32.86-.31 1.35.36.42 1.03.77 1.54.77h3.06z"/><path d="m10.33 19.54h-3.32s0 0 0 0c-.63 0-1.43-.39-1.88-.92l-.1-.12v-.16c-.02-.59.11-1.15.36-1.58l1.71-2.93-2.09-1.19 6.23-.27 2.88 5.46-2.08-1.19-1.7 2.91zm-3.32-.9h2.8s1.89-3.23 1.89-3.23l.18.1-1.18-2.23-2.55.11.17.1-2.17 3.72c-.14.25-.23.58-.24.94.3.28.77.5 1.09.5z"/></g><g mask="url(#f)"><path d="m26.35 17.47-2.23-3.81-4.15 2.37 3.8 6.49c.22.37.32.87.31 1.36.05-.07.1-.14.14-.21l2.14-3.65c.41-.7.41-1.85 0-2.55z"/><path d="m23.58 25.22.04-1.35c.01-.42-.08-.83-.25-1.12l-4.03-6.88 4.94-2.81 2.45 4.19c.49.84.49 2.16 0 3l-2.14 3.65c-.05.09-.11.17-.18.26l-.84 1.06zm-2.99-9.03 3.57 6.1c.06.1.11.21.16.32l1.65-2.82c.33-.56.33-1.54 0-2.09s-2.01-3.43-2.01-3.43z"/></g><g mask="url(#g)"><path d="m21.68 20.21h-3.6s0-1.29 0-1.29l-2.36 3.65 2.36 3.66v-1.29h3.89s0 0 0 0c.43 0 .92-.16 1.34-.41.19-.52.16-1.27-.1-1.7z"/><path d="m18.54 27.76-3.35-5.18 3.35-5.18v2.36h3.4s1.66 2.84 1.66 2.84c.32.55.38 1.42.13 2.08l-.05.15-.14.08c-.51.31-1.07.48-1.57.48h-3.44v2.36zm-2.28-5.18 1.38 2.13v-.22h4.34c.29 0 .63-.1.96-.27.09-.39.05-.9-.11-1.17l-1.4-2.39h-3.79v-.22l-1.38 2.13z"/></g></g></svg>