<svg xmlns="http://www.w3.org/2000/svg" width="21" height="31.47"
     viewBox="0 0 21 31.47">
  <defs>
    <style>
      .cls-1, .cls-4 {
        fill: none;
      }

      .cls-2 {
        clip-path: url(#clip-path);
      }

      .cls-3 {
        fill: #fff;
      }

      .cls-4 {
        stroke: #004667;
        stroke-linecap: round;
        stroke-linejoin: round;
      }
    </style>
    <clipPath id="clip-path" transform="translate(-19.5 -14.26)">
      <rect class="cls-1" width="60" height="60"/>
    </clipPath>
  </defs>
  <title>cat_perico_08</title>
  <g id="Layer_2" data-name="Layer 2">
    <g id="Layer_1-2" data-name="Layer 1">
      <g id="cat_perico_08">
        <g class="cls-2">
          <g class="cls-2">
            <path class="cls-3" d="M40,23.64v20c0,.91-4.48,1.64-10,1.64s-10-.73-10-1.64v-20"
                  transform="translate(-19.5 -14.26)"/>
            <path class="cls-4" d="M40,23.64v20c0,.91-4.48,1.64-10,1.64s-10-.73-10-1.64v-20"
                  transform="translate(-19.5 -14.26)"/>
            <path class="cls-4" d="M20,23.47c0-4.81,4.48-8.71,10-8.71s10,3.9,10,8.71"
                  transform="translate(-19.5 -14.26)"/>
            <path class="cls-4" d="M34.5,25.27v9.5a2.5,2.5,0,1,1-5,0v-5a1.5,1.5,0,1,0-3,0v4.5a2,2,0,0,1-4,0V24.81"
                  transform="translate(-19.5 -14.26)"/>
            <path class="cls-3" d="M40,23.64c0,.9-4.48,1.63-10,1.63s-10-.73-10-1.63S24.48,22,30,22s10,.74,10,1.64"
                  transform="translate(-19.5 -14.26)"/>
            <path class="cls-4" d="M40,23.64c0,.9-4.48,1.63-10,1.63s-10-.73-10-1.63S24.48,22,30,22,40,22.74,40,23.64Z"
                  transform="translate(-19.5 -14.26)"/>
            <line class="cls-4" x1="17.45" y1="10.55" x2="17.45" y2="18.49"/>
            <line class="cls-4" x1="19.17" y1="10.19" x2="19.17" y2="12.56"/>
          </g>
        </g>
      </g>
    </g>
  </g>
</svg>
