<svg xmlns="http://www.w3.org/2000/svg" width="37.25" height="38.5"
     viewBox="0 0 37.25 38.5">
  <defs>
    <style>
      .cls-1, .cls-4 {
        fill: none;
      }

      .cls-2 {
        clip-path: url(#clip-path);
      }

      .cls-3 {
        fill: #fff;
      }

      .cls-4 {
        stroke: #004667;
        stroke-linecap: round;
        stroke-linejoin: round;
      }
    </style>
    <clipPath id="clip-path" transform="translate(-12 -10.75)">
      <rect class="cls-1" width="60" height="60"/>
    </clipPath>
  </defs>
  <title>cat_sticl_09</title>
  <g id="Layer_2" data-name="Layer 2">
    <g id="Layer_1-2" data-name="Layer 1">
      <g id="cat_sticl_09">
        <g class="cls-2">
          <g class="cls-2">
            <path class="cls-3"
                  d="M17.5,48.75h-5V27.5s0-5,3.75-5v-10H15V11.25h5V12.5H18.75v10c3.75,0,3.75,5,3.75,5V48.75Z"
                  transform="translate(-12 -10.75)"/>
            <path class="cls-4"
                  d="M17.5,48.75h-5V27.5s0-5,3.75-5v-10H15V11.25h5V12.5H18.75v10c3.75,0,3.75,5,3.75,5V48.75Z"
                  transform="translate(-12 -10.75)"/>
            <rect class="cls-4" x="3" y="18" width="5" height="10"/>
            <path class="cls-3"
                  d="M35.5,48.75H28.25a2,2,0,0,1-2-2V37a2,2,0,0,1,2-2H35.5a2,2,0,0,1,2,2v9.75a2,2,0,0,1-2,2"
                  transform="translate(-12 -10.75)"/>
            <rect class="cls-4" x="14.25" y="24.25" width="11.25" height="13.75" rx="2" ry="2"/>
            <rect class="cls-3" x="16.75" y="21.75" width="6.25" height="2.5"/>
            <rect class="cls-4" x="16.75" y="21.75" width="6.25" height="2.5"/>
            <rect class="cls-3" x="15.5" y="20.5" width="8.75" height="1.25"/>
            <rect class="cls-4" x="15.5" y="20.5" width="8.75" height="1.25"/>
            <rect class="cls-4" x="16.75" y="28" width="6.25" height="6.25"/>
            <path class="cls-3" d="M48.75,30c0,6.21-2,11.25-4.37,11.25S40,36.21,40,30Z"
                  transform="translate(-12 -10.75)"/>
            <path class="cls-4" d="M48.75,30c0,6.21-2,11.25-4.37,11.25S40,36.21,40,30Z"
                  transform="translate(-12 -10.75)"/>
            <line class="cls-4" x1="32.38" y1="30.5" x2="32.38" y2="38"/>
            <line class="cls-4" x1="28.63" y1="38" x2="36.13" y2="38"/>
          </g>
        </g>
      </g>
    </g>
  </g>
</svg>
