<svg xmlns="http://www.w3.org/2000/svg" width="44.19" height="36.25"
     viewBox="0 0 44.19 36.25">
  <defs>
    <style>
      .cls-1, .cls-4 {
        fill: none;
      }

      .cls-2 {
        clip-path: url(#clip-path);
      }

      .cls-3 {
        fill: #fff;
      }

      .cls-4 {
        stroke: #004667;
        stroke-linecap: round;
        stroke-linejoin: round;
      }
    </style>
    <clipPath id="clip-path" transform="translate(-7.66 -13)">
      <rect class="cls-1" width="60" height="60"/>
    </clipPath>
  </defs>
  <title>cat_metal_06</title>
  <g id="Layer_2" data-name="Layer 2">
    <g id="Layer_1-2" data-name="Layer 1">
      <g id="cat_metal_06">
        <g class="cls-2">
          <polygon class="cls-3"
                   points="26.62 2.66 22.24 2.66 17.86 2.66 16.11 4.41 16.11 34 17.86 35.75 22.24 35.75 26.62 35.75 28.37 34 28.37 4.41 26.62 2.66"/>
          <polygon class="cls-4"
                   points="26.62 2.66 22.24 2.66 17.86 2.66 16.11 4.41 16.11 34 17.86 35.75 22.24 35.75 26.62 35.75 28.37 34 28.37 4.41 26.62 2.66"/>
          <line class="cls-4" x1="16.11" y1="4.41" x2="28.37" y2="4.41"/>
          <line class="cls-4" x1="16.11" y1="34" x2="28.37" y2="34"/>
          <polygon class="cls-3"
                   points="11.01 13.66 6.63 13.66 2.25 13.66 0.5 15.41 0.5 34 2.25 35.75 6.63 35.75 11.01 35.75 12.76 34 12.76 15.41 11.01 13.66"/>
          <polygon class="cls-4"
                   points="11.01 13.66 6.63 13.66 2.25 13.66 0.5 15.41 0.5 34 2.25 35.75 6.63 35.75 11.01 35.75 12.76 34 12.76 15.41 11.01 13.66"/>
          <line class="cls-4" x1="0.5" y1="15.41" x2="12.76" y2="15.41"/>
          <line class="cls-4" x1="0.5" y1="34" x2="12.76" y2="34"/>
          <rect class="cls-3" x="31.43" y="18.9" width="12.26" height="16.85"/>
          <rect class="cls-4" x="31.43" y="18.9" width="12.26" height="16.85"/>
          <g class="cls-2">
            <path class="cls-3"
                  d="M46.81,27.64c2.74,2,4.77,3.86,4.52,4.2s-2.67-1-5.42-3S41.14,25,41.38,24.67s2.68,1,5.43,3"
                  transform="translate(-7.66 -13)"/>
            <path class="cls-4"
                  d="M46.81,27.64c2.74,2,4.77,3.86,4.52,4.2s-2.67-1-5.42-3S41.14,25,41.38,24.67,44.06,25.66,46.81,27.64Z"
                  transform="translate(-7.66 -13)"/>
            <line class="cls-4" x1="3.84" y1="13.5" x2="5.84" y2="11.5"/>
            <line class="cls-4" x1="24.84" y1="2.5" x2="22.84" y2="0.5"/>
            <line class="cls-4" x1="31.56" y1="23.82" x2="43.56" y2="23.82"/>
            <line class="cls-4" x1="31.56" y1="27.32" x2="43.56" y2="27.32"/>
            <line class="cls-4" x1="31.56" y1="30.82" x2="43.56" y2="30.82"/>
          </g>
        </g>
      </g>
    </g>
  </g>
</svg>
