<svg xmlns="http://www.w3.org/2000/svg" width="26.47" height="35.94"
     viewBox="0 0 26.47 35.94">
  <defs>
    <style>
      .cls-1, .cls-4 {
        fill: none;
      }

      .cls-2 {
        clip-path: url(#clip-path);
      }

      .cls-3 {
        fill: #fff;
      }

      .cls-4 {
        stroke: #004667;
        stroke-linecap: round;
        stroke-linejoin: round;
      }
    </style>
    <clipPath id="clip-path" transform="translate(-16.77 -12.03)">
      <rect class="cls-1" width="60" height="60"/>
    </clipPath>
  </defs>
  <title>cat_alte_11</title>
  <g id="Layer_2" data-name="Layer 2">
    <g id="Layer_1-2" data-name="Layer 1">
      <g id="cat_alte_11">
        <g class="cls-2">
          <g class="cls-2">
            <path class="cls-3"
                  d="M23,25.51s-3.74-2.32-5.31,3,1.38,11.1,1.38,11.1L25.23,46h9.55l6.11-6.37s3-5.8,1.38-11.1-5.31-3-5.31-3"
                  transform="translate(-16.77 -12.03)"/>
            <path class="cls-4"
                  d="M23,25.51s-3.74-2.32-5.31,3,1.38,11.1,1.38,11.1L25.23,46h9.55l6.11-6.37s3-5.8,1.38-11.1-5.31-3-5.31-3"
                  transform="translate(-16.77 -12.03)"/>
            <path class="cls-3"
                  d="M18.23,44.55a4.31,4.31,0,0,0,5.08,2.77,3.63,3.63,0,0,0,2.14-4.94,4.31,4.31,0,0,0-5.08-2.77,3.63,3.63,0,0,0-2.14,4.94"
                  transform="translate(-16.77 -12.03)"/>
            <path class="cls-4"
                  d="M18.23,44.55a4.31,4.31,0,0,0,5.08,2.77,3.63,3.63,0,0,0,2.14-4.94,4.31,4.31,0,0,0-5.08-2.77A3.63,3.63,0,0,0,18.23,44.55Z"
                  transform="translate(-16.77 -12.03)"/>
            <path class="cls-3" d="M35.41,14.12a1.76,1.76,0,0,1,3.5,0,1.67,1.67,0,0,1-1.75,1.59"
                  transform="translate(-16.77 -12.03)"/>
            <path class="cls-4" d="M35.41,14.12a1.76,1.76,0,0,1,3.5,0,1.67,1.67,0,0,1-1.75,1.59"
                  transform="translate(-16.77 -12.03)"/>
            <path class="cls-3" d="M24.59,14.12a1.76,1.76,0,0,0-3.5,0,1.67,1.67,0,0,0,1.75,1.59"
                  transform="translate(-16.77 -12.03)"/>
            <path class="cls-4" d="M24.59,14.12a1.76,1.76,0,0,0-3.5,0,1.67,1.67,0,0,0,1.75,1.59"
                  transform="translate(-16.77 -12.03)"/>
            <path class="cls-3" d="M38.75,20.48c0,4.4-3.92,8-8.75,8s-8.75-3.56-8.75-8,3.92-8,8.75-8,8.75,3.56,8.75,8"
                  transform="translate(-16.77 -12.03)"/>
            <ellipse class="cls-4" cx="13.23" cy="8.45" rx="8.75" ry="7.95"/>
            <path class="cls-4" d="M27.61,19.29a.39.39,0,0,1-.39.4.4.4,0,1,1,0-.8A.39.39,0,0,1,27.61,19.29Z"
                  transform="translate(-16.77 -12.03)"/>
            <path class="cls-4" d="M33.18,19.29a.4.4,0,0,1-.4.4.4.4,0,0,1,0-.8A.4.4,0,0,1,33.18,19.29Z"
                  transform="translate(-16.77 -12.03)"/>
            <polyline class="cls-4" points="13.43 10.84 14.63 10.84 13.43 12.03 13.43 10.84"/>
            <polyline class="cls-4" points="13.04 10.84 11.84 10.84 13.04 12.03 13.04 10.84"/>
            <path class="cls-4" d="M27.79,25.31c0,1.1,1,.74,2.21.74s2.21.36,2.21-.74"
                  transform="translate(-16.77 -12.03)"/>
            <path class="cls-4"
                  d="M38.27,31.51c0,6.09-3.7,11-8.27,11s-8.27-4.94-8.27-11,3.31-3.15,7.88-3.15S38.27,25.42,38.27,31.51Z"
                  transform="translate(-16.77 -12.03)"/>
            <path class="cls-3"
                  d="M41.77,44.55a4.31,4.31,0,0,1-5.08,2.77,3.63,3.63,0,0,1-2.14-4.94,4.31,4.31,0,0,1,5.08-2.77,3.63,3.63,0,0,1,2.14,4.94"
                  transform="translate(-16.77 -12.03)"/>
            <path class="cls-4"
                  d="M41.77,44.55a4.31,4.31,0,0,1-5.08,2.77,3.63,3.63,0,0,1-2.14-4.94,4.31,4.31,0,0,1,5.08-2.77A3.63,3.63,0,0,1,41.77,44.55Z"
                  transform="translate(-16.77 -12.03)"/>
          </g>
        </g>
      </g>
    </g>
  </g>
</svg>
