<svg xmlns="http://www.w3.org/2000/svg" width="46" height="37.25"
     viewBox="0 0 46 37.25">
  <defs>
    <style>
      .cls-1, .cls-4 {
        fill: none;
      }

      .cls-2 {
        clip-path: url(#clip-path);
      }

      .cls-3 {
        fill: #fff;
      }

      .cls-4 {
        stroke: #004667;
        stroke-linecap: round;
        stroke-linejoin: round;
      }
    </style>
    <clipPath id="clip-path" transform="translate(-8.17 -11.38)">
      <rect class="cls-1" width="60" height="60"/>
    </clipPath>
  </defs>
  <title>cat_plast_07</title>
  <g id="Layer_2" data-name="Layer 2">
    <g id="Layer_1-2" data-name="Layer 1">
      <g id="cat_plast_07">
        <g class="cls-2">
          <g class="cls-2">
            <path class="cls-3"
                  d="M12.42,14.38v1.25s-3.75,1.25-3.75,5V22.5c0,.38,1.25.8,1.25,1.25S8.67,24.56,8.67,25s1.25.82,1.25,1.25-1.25.82-1.25,1.25,1.25.83,1.25,1.25S8.67,29.58,8.67,30V48.13h10V30c0-.42-1.25-.84-1.25-1.25s1.25-.84,1.25-1.25-1.25-.85-1.25-1.25,1.25-.85,1.25-1.25-1.25-.86-1.25-1.25,1.25-.87,1.25-1.25V20.63c0-3.75-3.75-5-3.75-5V14.38"
                  transform="translate(-8.17 -11.38)"/>
            <path class="cls-4"
                  d="M12.42,14.38v1.25s-3.75,1.25-3.75,5V22.5c0,.38,1.25.8,1.25,1.25S8.67,24.56,8.67,25s1.25.82,1.25,1.25-1.25.82-1.25,1.25,1.25.83,1.25,1.25S8.67,29.58,8.67,30V48.13h10V30c0-.42-1.25-.84-1.25-1.25s1.25-.84,1.25-1.25-1.25-.85-1.25-1.25,1.25-.85,1.25-1.25-1.25-.86-1.25-1.25,1.25-.87,1.25-1.25V20.63c0-3.75-3.75-5-3.75-5V14.38"
                  transform="translate(-8.17 -11.38)"/>
            <rect class="cls-3" x="3" y="0.5" width="5" height="2.5"/>
            <rect class="cls-4" x="3" y="0.5" width="5" height="2.5"/>
            <path class="cls-3" d="M29.3,24.38H25.55s-3.75,0-3.75,22.5H33.05c0-22.5-3.75-22.5-3.75-22.5"
                  transform="translate(-8.17 -11.38)"/>
            <path class="cls-4" d="M29.3,24.38H25.55s-3.75,0-3.75,22.5H33.05C33.05,24.38,29.3,24.38,29.3,24.38Z"
                  transform="translate(-8.17 -11.38)"/>
            <path class="cls-4" d="M21.8,44.38a10.27,10.27,0,0,1,11.25,0" transform="translate(-8.17 -11.38)"/>
            <polygon class="cls-3"
                     points="36.67 19.25 35.58 19.25 28 19.25 29.25 36.75 35.58 36.75 36.67 36.75 43 36.75 44.25 19.25 36.67 19.25"/>
            <polygon class="cls-4"
                     points="36.67 19.25 35.58 19.25 28 19.25 29.25 36.75 35.58 36.75 36.67 36.75 43 36.75 44.25 19.25 36.67 19.25"/>
            <rect class="cls-3" x="26.75" y="16.75" width="18.75" height="2.5"/>
            <rect class="cls-4" x="26.75" y="16.75" width="18.75" height="2.5"/>
          </g>
        </g>
      </g>
    </g>
  </g>
</svg>
