<svg xmlns="http://www.w3.org/2000/svg" width="47.78" height="37"
     viewBox="0 0 47.78 37">
  <defs>
    <style>
      .cls-1, .cls-4 {
        fill: none;
      }

      .cls-2 {
        clip-path: url(#clip-path);
      }

      .cls-3 {
        fill: #fff;
      }

      .cls-4 {
        stroke: #004667;
        stroke-linecap: round;
        stroke-linejoin: round;
      }
    </style>
    <clipPath id="clip-path" transform="translate(-6.11 -11.25)">
      <rect class="cls-1" width="60" height="60"/>
    </clipPath>
  </defs>
  <title>cat_auto_01</title>
  <g id="Layer_2" data-name="Layer 2">
    <g id="Layer_1-2" data-name="Layer 1">
      <g id="cat_auto_01">
        <g class="cls-2">
          <g class="cls-2">
            <path class="cls-3" d="M47.5,25.75l-5-13a67.61,67.61,0,0,0-12-1h-1a67.61,67.61,0,0,0-12,1l-5,13"
                  transform="translate(-6.11 -11.25)"/>
            <path class="cls-4" d="M47.5,25.75l-5-13a67.61,67.61,0,0,0-12-1h-1a67.61,67.61,0,0,0-12,1l-5,13"
                  transform="translate(-6.11 -11.25)"/>
            <path class="cls-3"
                  d="M30.5,43.75h-19l-2-7s-3-10,7-13a63.26,63.26,0,0,1,13.5-2,63.26,63.26,0,0,1,13.5,2c10,3,7,13,7,13l-2,7h-18Z"
                  transform="translate(-6.11 -11.25)"/>
            <path class="cls-4"
                  d="M30.5,43.75h-19l-2-7s-3-10,7-13a63.26,63.26,0,0,1,13.5-2,63.26,63.26,0,0,1,13.5,2c10,3,7,13,7,13l-2,7h-18Z"
                  transform="translate(-6.11 -11.25)"/>
            <path class="cls-3" d="M46.5,22.75l2-3h4a2.77,2.77,0,0,1,0,4h-5" transform="translate(-6.11 -11.25)"/>
            <path class="cls-4" d="M46.5,22.75l2-3h4a2.77,2.77,0,0,1,0,4h-5" transform="translate(-6.11 -11.25)"/>
            <path class="cls-3" d="M13.5,22.75l-2-3h-4a2.77,2.77,0,0,0,0,4h5" transform="translate(-6.11 -11.25)"/>
            <path class="cls-4" d="M13.5,22.75l-2-3h-4a2.77,2.77,0,0,0,0,4h5" transform="translate(-6.11 -11.25)"/>
            <line class="cls-4" x1="14.39" y1="27.5" x2="33.39" y2="27.5"/>
            <circle class="cls-4" cx="36.89" cy="20" r="3.5"/>
            <circle class="cls-4" cx="10.89" cy="20" r="3.5"/>
            <rect class="cls-3" x="7.39" y="32.5" width="6" height="4"/>
            <rect class="cls-4" x="7.39" y="32.5" width="6" height="4"/>
            <rect class="cls-3" x="34.39" y="32.5" width="6" height="4"/>
            <rect class="cls-4" x="34.39" y="32.5" width="6" height="4"/>
          </g>
        </g>
      </g>
    </g>
  </g>
</svg>
