<svg xmlns="http://www.w3.org/2000/svg" width="64" height="85" viewBox="0 0 64 85" fill="none">
    <ellipse cx="32.6527" cy="32.6037" rx="14.6937" ry="14.672" fill="none"/>
    <path d="M32.0003 0C27.7967 -5.46312e-07 23.6342 0.827014 19.7508 2.43379C15.8673 4.04057 12.339 6.39563 9.3673 9.36442C6.39564 12.3332 4.0389 15.8575 2.43172 19.7361C0.824548 23.6146 -0.0015666 27.7713 0.000578116 31.9687C-0.0647274 45.8746 5.37196 65.2417 32.0003 85C58.5633 65.2417 64 45.8746 64 31.9687C64.0021 27.7713 63.176 23.6146 61.5688 19.7361C59.9617 15.8575 57.6049 12.3332 54.6333 9.36442C51.6616 6.39563 48.1333 4.04057 44.2498 2.43379C40.3664 0.827014 36.2039 -5.46312e-07 32.0003 0ZM32.0003 45.6463C29.3363 45.6463 26.7322 44.8575 24.5172 43.3797C22.3022 41.9019 20.5758 39.8014 19.5563 37.3438C18.5369 34.8863 18.2701 32.1821 18.7898 29.5731C19.3095 26.9642 20.5924 24.5678 22.4761 22.6868C24.3598 20.8059 26.7598 19.525 29.3726 19.006C31.9853 18.4871 34.6936 18.7534 37.1548 19.7714C39.6159 20.7893 41.7196 22.5132 43.1996 24.7249C44.6796 26.9366 45.4696 29.5369 45.4696 32.197C45.4696 35.764 44.0505 39.1849 41.5245 41.7071C38.9985 44.2294 35.5726 45.6463 32.0003 45.6463Z" fill="#00AD4D"/>
</svg>
