<svg xmlns="http://www.w3.org/2000/svg" width="120" height="40" viewBox="0 0 120 40" fill="none">
    <g clip-path="url(#clip0_2612_87895)">
        <path d="M31.6005 24.4196C33.5675 22.3486 34.4405 19.1026 34.4405 16.8106C34.4405 14.8476 34.1095 13.5626 33.7565 12.3936C33.3706 11.0484 32.6573 9.81974 31.6805 8.81758C31.0755 8.19458 30.1375 7.38858 28.5505 6.70558C26.9635 6.02258 25.1155 5.26758 20.7295 5.26758C17.5425 5.26758 13.7495 6.31258 11.5105 7.33758C7.52052 9.16358 4.97852 11.0226 4.97852 11.0226V12.2846L5.11252 12.3166C5.66352 12.4356 7.40352 12.5166 7.40352 14.1536C7.40352 14.5096 6.42952 19.3536 6.42952 23.9716C6.42952 29.1006 7.64852 32.8926 7.64852 32.8926C7.64852 32.8926 8.47152 33.2726 10.8695 33.7146C13.6075 34.2146 15.3915 34.0426 15.3915 34.0426C15.3915 34.0426 14.5915 28.3826 15.2355 27.8646C15.3845 27.7446 15.6845 27.7296 15.8915 28.2046C16.2445 29.0106 17.4595 30.8266 19.4715 32.6046C20.0975 33.1586 21.1875 33.7446 21.9215 34.0046C22.6555 34.2646 23.6215 34.5796 24.7565 34.6666C25.4795 34.7226 26.9955 34.7806 28.0075 34.6666C28.8985 34.5666 29.8225 34.4356 30.5135 34.2926C30.8446 34.2243 31.172 34.1396 31.4945 34.0386V32.9136C30.6001 32.7944 29.7366 32.5055 28.9505 32.0626C27.9755 31.5256 26.7505 30.3016 26.2565 29.6756C25.8745 29.1936 25.3245 28.4396 25.6015 28.2876C27.1655 27.8066 29.3865 26.7546 31.6005 24.4196ZM19.9225 23.8926C19.9195 23.8903 19.9161 23.8886 19.9125 23.8876L19.9025 23.8926C15.5825 20.6746 14.7025 17.5086 14.7025 15.2576C14.7025 13.8785 15.2504 12.5558 16.2256 11.5806C17.2007 10.6054 18.5234 10.0576 19.9025 10.0576H19.9225C21.3016 10.0576 22.6243 10.6054 23.5995 11.5806C24.5747 12.5558 25.1225 13.8785 25.1225 15.2576C25.1295 17.5086 24.2455 20.6746 19.9255 23.8926H19.9225Z" fill="white"/>
        <path d="M19.9146 17.4855C19.4815 17.4855 19.0581 17.357 18.6979 17.1164C18.3378 16.8757 18.0571 16.5337 17.8913 16.1335C17.7256 15.7334 17.6822 15.293 17.7667 14.8682C17.8512 14.4434 18.0598 14.0532 18.366 13.7469C18.6723 13.4406 19.0625 13.2321 19.4874 13.1476C19.9122 13.063 20.3525 13.1064 20.7527 13.2722C21.1529 13.4379 21.4949 13.7186 21.7355 14.0788C21.9762 14.4389 22.1046 14.8623 22.1046 15.2955C22.1047 15.5831 22.0482 15.8679 21.9382 16.1337C21.8282 16.3995 21.6669 16.6409 21.4635 16.8443C21.2601 17.0477 21.0186 17.209 20.7528 17.319C20.4871 17.429 20.2022 17.4856 19.9146 17.4855Z" fill="white"/>
        <path d="M41.9062 18.4995V8.23047H43.4062V12.5515H48.2812V8.23047H49.7812V18.4995H48.2812V13.8235H43.4062V18.4995H41.9062Z" fill="white"/>
        <path d="M52.4392 11.5257C52.7002 11.3957 52.9442 11.2787 53.1732 11.1747C53.395 11.074 53.624 10.9897 53.8582 10.9227C54.0878 10.8574 54.3217 10.8083 54.5582 10.7757C54.8174 10.7416 55.0787 10.7252 55.3402 10.7267C55.7332 10.7233 56.125 10.77 56.5062 10.8657C56.8419 10.9489 57.1541 11.1076 57.4192 11.3297C57.6847 11.562 57.889 11.856 58.0142 12.1857C58.1679 12.6114 58.2398 13.0623 58.2262 13.5147V18.5007H57.0362L56.8572 17.6537H56.8242C56.5182 17.9907 56.1387 18.2528 55.7152 18.4197C55.2871 18.5763 54.834 18.6535 54.3782 18.6477C54.0332 18.6537 53.6894 18.6041 53.3602 18.5007C53.0659 18.4062 52.7921 18.2569 52.5532 18.0607C52.3265 17.8727 52.1453 17.6358 52.0232 17.3677C51.8952 17.0806 51.8313 16.7691 51.8362 16.4547C51.8362 15.6507 52.1542 15.0394 52.7902 14.6207C53.4262 14.2021 54.2655 13.9927 55.3082 13.9927H56.7762V13.3407C56.7762 12.7861 56.6349 12.4084 56.3522 12.2077C56.0695 12.0071 55.6892 11.9071 55.2112 11.9077C54.8834 11.9138 54.5575 11.9605 54.2412 12.0467C53.8044 12.1692 53.385 12.347 52.9932 12.5757L52.4392 11.5257ZM56.7932 14.9657L55.5862 14.9987C54.7702 15.0207 54.1912 15.1647 53.8492 15.4307C53.5072 15.6967 53.3362 16.0201 53.3362 16.4007C53.3303 16.5998 53.3693 16.7977 53.4502 16.9797C53.5162 17.1263 53.6197 17.2529 53.7502 17.3467C53.8832 17.4374 54.0327 17.5009 54.1902 17.5337C54.3641 17.5729 54.5419 17.592 54.7202 17.5907C55.0981 17.5864 55.4706 17.5004 55.8122 17.3387C56.2002 17.1547 56.5365 16.8775 56.7912 16.5317L56.7932 14.9657Z" fill="white"/>
        <path d="M60.624 18.5001V10.8401H61.7L61.945 12.3731C62.1225 11.8935 62.4408 11.4787 62.858 11.1831C63.2856 10.877 63.8003 10.7168 64.326 10.7261C64.7399 10.7127 65.1516 10.7906 65.532 10.9541L65.255 12.2101C65.1167 12.1416 64.972 12.0867 64.823 12.0461C64.639 12.0001 64.4497 11.9786 64.26 11.9821C63.9616 11.979 63.6654 12.034 63.388 12.1441C63.1212 12.2534 62.8821 12.4208 62.688 12.6341C62.4765 12.8677 62.3155 13.1424 62.215 13.4411C62.0956 13.7953 62.0377 14.1673 62.044 14.5411V18.5001H60.624Z" fill="white"/>
        <path d="M72.0541 11.9165H69.8001V16.3675C69.8001 16.7485 69.9001 17.0035 70.0851 17.1345C70.3064 17.275 70.5652 17.3448 70.8271 17.3345C71.0679 17.332 71.3079 17.3072 71.5441 17.2605C71.776 17.2188 72.0049 17.1617 72.2291 17.0895L72.4581 18.1815C72.1885 18.2834 71.9099 18.36 71.6261 18.4105C71.2768 18.4775 70.9218 18.511 70.5661 18.5105C69.8055 18.5105 69.2511 18.3439 68.9031 18.0105C68.5551 17.6772 68.3811 17.1962 68.3811 16.5675V11.9165H67.2441V10.8405H68.3851V8.39453H69.8001V10.8405H72.0501L72.0541 11.9165Z" fill="white"/>
        <path d="M74.611 11.5257C74.871 11.3957 75.111 11.2787 75.344 11.1747C75.5659 11.0743 75.7949 10.99 76.029 10.9227C76.2586 10.8574 76.4925 10.8083 76.729 10.7757C76.9886 10.7416 77.2502 10.7252 77.512 10.7267C77.905 10.7233 78.2968 10.77 78.678 10.8657C79.0136 10.9491 79.3258 11.1078 79.591 11.3297C79.858 11.5617 80.064 11.8556 80.191 12.1857C80.3432 12.6117 80.4141 13.0626 80.4 13.5147V18.5007H79.208L79.029 17.6537H79C78.6938 17.9905 78.3144 18.2526 77.891 18.4197C77.4629 18.5763 77.0098 18.6535 76.554 18.6477C76.2079 18.6512 75.8635 18.5988 75.534 18.4927C75.2399 18.3977 74.9662 18.2485 74.727 18.0527C74.5003 17.8649 74.3194 17.6279 74.198 17.3597C74.0696 17.0727 74.0055 16.7611 74.01 16.4467C74.01 15.6427 74.328 15.0314 74.964 14.6127C75.6 14.1941 76.4397 13.9847 77.483 13.9847H78.951V13.3327C78.951 12.7781 78.8093 12.4004 78.526 12.1997C78.2427 11.9991 77.8623 11.8991 77.385 11.8997C77.0572 11.9059 76.7314 11.9526 76.415 12.0387C75.9785 12.1613 75.5594 12.339 75.168 12.5677L74.611 11.5257ZM78.964 14.9657L77.757 14.9987C76.9417 15.0207 76.363 15.1647 76.021 15.4307C75.679 15.6967 75.5077 16.0201 75.507 16.4007C75.5011 16.5998 75.5401 16.7977 75.621 16.9797C75.6873 17.1261 75.7907 17.2526 75.921 17.3467C76.0542 17.437 76.2036 17.5005 76.361 17.5337C76.5349 17.5728 76.7127 17.5919 76.891 17.5907C77.2946 17.5867 77.6918 17.4889 78.0512 17.3051C78.4106 17.1213 78.7224 16.8566 78.962 16.5317L78.964 14.9657Z" fill="white"/>
        <path d="M41.9062 22.7663H45.2492C45.7292 22.7574 46.2068 22.835 46.6592 22.9953C47.0407 23.131 47.3883 23.3477 47.6783 23.6303C47.953 23.9047 48.1652 24.2352 48.3003 24.5993C48.4455 24.9933 48.5177 25.4104 48.5133 25.8303C48.5185 26.1917 48.4575 26.5509 48.3332 26.8903C48.2232 27.1894 48.0633 27.4677 47.8603 27.7133C47.6653 27.9451 47.4376 28.1473 47.1842 28.3133C46.9393 28.4756 46.6799 28.6149 46.4092 28.7293L49.1163 33.0293H47.4362L45.0003 29.0113H43.3253V33.0383H41.9062V22.7663ZM43.3253 27.7883H44.5643C44.8797 27.7909 45.1943 27.7553 45.5013 27.6823C45.7691 27.6205 46.0233 27.51 46.2513 27.3563C46.4648 27.2077 46.6386 27.0089 46.7573 26.7773C46.8887 26.5087 46.9529 26.2122 46.9443 25.9133C46.9443 25.2506 46.7623 24.7616 46.3983 24.4463C46.0343 24.131 45.5042 23.9733 44.8082 23.9733H43.3253V27.7883Z" fill="white"/>
        <path d="M57.0365 29.3703H51.5365V29.4353C51.5365 30.2833 51.7675 30.9353 52.2295 31.3913C52.6915 31.8473 53.3195 32.0756 54.1135 32.0763C54.4826 32.08 54.8512 32.0464 55.2135 31.9763C55.5732 31.8994 55.9252 31.7906 56.2655 31.6513L56.5585 32.7103C56.2003 32.8654 55.826 32.9804 55.4425 33.0533C54.9883 33.142 54.5264 33.1855 54.0635 33.1833C53.5359 33.1872 53.0109 33.1103 52.5065 32.9553C52.0352 32.81 51.5993 32.5682 51.2265 32.2453C50.8452 31.9078 50.5468 31.4869 50.3545 31.0153C50.1296 30.4446 50.0215 29.8345 50.0365 29.2213C50.0295 28.666 50.1206 28.1139 50.3055 27.5903C50.4691 27.1266 50.7272 26.702 51.0635 26.3433C51.3967 25.9962 51.7995 25.7235 52.2455 25.5433C52.7411 25.347 53.2705 25.2501 53.8035 25.2583C54.2579 25.2516 54.7092 25.3345 55.1315 25.5023C55.5153 25.6571 55.8624 25.8904 56.1505 26.1873C56.4396 26.4914 56.662 26.8524 56.8035 27.2473C56.9599 27.6865 57.0371 28.1501 57.0315 28.6163L57.0365 29.3703ZM55.5525 28.3433C55.5563 28.0762 55.5226 27.81 55.4525 27.5523C55.3869 27.3179 55.2758 27.0987 55.1255 26.9073C54.9745 26.7194 54.7822 26.5688 54.5635 26.4673C54.3016 26.3522 54.0175 26.2966 53.7315 26.3043C53.1315 26.3043 52.6452 26.4946 52.2725 26.8753C51.8999 27.256 51.6689 27.756 51.5795 28.3753L55.5525 28.3433Z" fill="white"/>
        <path d="M62.9362 32.077C63.2444 32.0822 63.5518 32.0438 63.8492 31.963C64.1122 31.8866 64.3684 31.7886 64.6152 31.67L64.9252 32.746C64.3379 33.0394 63.6379 33.186 62.8252 33.186C62.2963 33.1904 61.7703 33.1077 61.2682 32.941C60.7961 32.786 60.3617 32.5335 59.9932 32.2C59.6201 31.8548 59.3278 31.4314 59.1372 30.96C58.9197 30.4077 58.8143 29.8175 58.8272 29.224C58.819 28.6614 58.9185 28.1023 59.1202 27.577C59.3023 27.109 59.5802 26.6842 59.9362 26.33C60.2947 25.9811 60.7226 25.7115 61.1922 25.539C61.7089 25.3494 62.2559 25.2555 62.8062 25.262C63.1363 25.2614 63.4659 25.2858 63.7922 25.335C64.1727 25.4031 64.5426 25.5212 64.8922 25.686L64.5652 26.778C64.0737 26.4977 63.5171 26.3515 62.9512 26.354C62.1586 26.354 61.5172 26.6014 61.0272 27.096C60.5372 27.5907 60.2949 28.2837 60.3002 29.175C60.2861 29.6474 60.3635 30.1181 60.5282 30.561C60.6576 30.8991 60.8629 31.2029 61.1282 31.449C61.3722 31.6696 61.6617 31.8338 61.9762 31.93C62.287 32.0273 62.6106 32.0768 62.9362 32.077Z" fill="white"/>
        <path d="M67.5001 23.4001C67.2604 23.4044 67.0288 23.3135 66.8561 23.1471C66.7691 23.0679 66.7001 22.9709 66.6537 22.8628C66.6074 22.7546 66.5846 22.6378 66.5871 22.5201C66.5852 22.4013 66.6081 22.2833 66.6544 22.1737C66.7008 22.0642 66.7695 21.9656 66.8561 21.8841C66.9405 21.7998 67.041 21.7332 67.1516 21.6884C67.2623 21.6435 67.3808 21.6214 67.5001 21.6231C67.7383 21.6226 67.967 21.7164 68.1361 21.8841C68.2249 21.9643 68.2955 22.0625 68.3433 22.1722C68.3911 22.2819 68.4149 22.4005 68.4131 22.5201C68.4154 22.6385 68.3918 22.756 68.344 22.8643C68.2961 22.9726 68.2252 23.0692 68.1361 23.1471C67.9648 23.3106 67.7368 23.4013 67.5001 23.4001ZM66.7831 33.0361V25.3761H68.2181V33.0392L66.7831 33.0361Z" fill="white"/>
        <path d="M74.2839 32.077C74.5921 32.0821 74.8994 32.0437 75.1969 31.963C75.4598 31.8864 75.716 31.7884 75.9629 31.67L76.2729 32.746C75.6856 33.0394 74.9856 33.186 74.1729 33.186C73.6436 33.1904 73.1173 33.1077 72.6149 32.941C72.1428 32.7857 71.7085 32.5333 71.3399 32.2C70.9667 31.855 70.6747 31.4315 70.4849 30.96C70.2673 30.4077 70.1619 29.8175 70.1749 29.224C70.1667 28.6614 70.2661 28.1023 70.4679 27.577C70.6466 27.1086 70.9241 26.6841 71.2814 26.3325C71.6388 25.9808 72.0677 25.7102 72.5389 25.539C73.0556 25.3494 73.6025 25.2555 74.1529 25.262C74.4829 25.2613 74.8126 25.2857 75.1389 25.335C75.5195 25.4029 75.8894 25.5209 76.2389 25.686L75.9129 26.778C75.4216 26.4981 74.8654 26.3519 74.2999 26.354C73.5059 26.354 72.8646 26.6014 72.3759 27.096C71.8872 27.5907 71.6426 28.2837 71.6419 29.175C71.6275 29.6475 71.7053 30.1183 71.8709 30.561C72.0003 30.8991 72.2056 31.2029 72.4709 31.449C72.7149 31.6696 73.0044 31.8338 73.3189 31.93C73.6312 32.0278 73.9566 32.0773 74.2839 32.077Z" fill="white"/>
        <path d="M78.3105 33.0389V21.4629H79.7105V33.0389H78.3105Z" fill="white"/>
        <path d="M82.3873 26.0612C82.6487 25.9279 82.8933 25.8109 83.1213 25.7102C83.343 25.6097 83.5716 25.5252 83.8053 25.4572C84.0348 25.3918 84.2688 25.343 84.5053 25.3112C84.7646 25.2771 85.0258 25.2607 85.2873 25.2622C85.681 25.2578 86.0735 25.3041 86.4553 25.4002C86.791 25.4834 87.1033 25.6421 87.3683 25.8642C87.6356 26.0959 87.8417 26.3899 87.9683 26.7202C88.1221 27.1459 88.1941 27.5968 88.1803 28.0492V33.0382H86.9903L86.8103 32.1912H86.7783C86.4723 32.5282 86.0928 32.7903 85.6693 32.9572C85.2412 33.1137 84.7881 33.191 84.3323 33.1852C83.9865 33.1887 83.6424 33.1363 83.3133 33.0302C83.019 32.9356 82.7452 32.7864 82.5063 32.5902C82.2796 32.4022 82.0984 32.1652 81.9763 31.8972C81.8483 31.6101 81.7845 31.2985 81.7893 30.9842C81.7893 30.1802 82.107 29.5689 82.7423 29.1502C83.3776 28.7316 84.2173 28.5222 85.2613 28.5222H86.7293V27.8702C86.7293 27.3152 86.5883 26.9382 86.3053 26.7362C86.0223 26.5342 85.6423 26.4362 85.1643 26.4362C84.8366 26.4423 84.5108 26.4886 84.1943 26.5742C83.7574 26.6969 83.338 26.875 82.9463 27.1042L82.3873 26.0612ZM84.1643 21.9522C84.19 22.2484 84.2878 22.5337 84.4493 22.7832C84.5966 22.9899 84.893 23.0932 85.3383 23.0932C85.7193 23.0932 85.9983 22.9932 86.1783 22.8002C86.3583 22.6072 86.4683 22.3222 86.5123 21.9522H87.5233C87.5321 22.219 87.4868 22.4848 87.3902 22.7336C87.2937 22.9825 87.1478 23.2092 86.9613 23.4002C86.5853 23.7802 86.0443 23.9706 85.3383 23.9712C84.9971 23.9789 84.6576 23.9209 84.3383 23.8002C84.0804 23.6982 83.8472 23.5424 83.6543 23.3432C83.4773 23.1573 83.3435 22.9347 83.2623 22.6912C83.1821 22.452 83.1409 22.2015 83.1403 21.9492L84.1643 21.9522ZM86.7403 29.5002L85.5343 29.5332C84.7183 29.5552 84.1393 29.6992 83.7973 29.9652C83.4553 30.2312 83.2843 30.5546 83.2843 30.9352C83.2784 31.1343 83.3174 31.3322 83.3983 31.5142C83.4643 31.6608 83.5678 31.7874 83.6983 31.8812C83.8313 31.9718 83.9808 32.0354 84.1383 32.0682C84.312 32.1069 84.4894 32.126 84.6673 32.1252C85.0455 32.1208 85.4184 32.0349 85.7603 31.8732C86.1481 31.6893 86.4841 31.412 86.7383 31.0662L86.7403 29.5002Z" fill="white"/>
        <path d="M90.5234 33.0382V25.3752H91.6004L91.8454 26.9072C92.0229 26.4279 92.3412 26.0135 92.7584 25.7182C93.186 25.4122 93.7007 25.252 94.2264 25.2612C94.6403 25.2479 95.052 25.3257 95.4324 25.4892L95.1554 26.7452C95.0171 26.6768 94.8724 26.6218 94.7234 26.5812C94.5394 26.5349 94.3501 26.513 94.1604 26.5162C93.8619 26.5135 93.5658 26.5688 93.2884 26.6792C93.0216 26.7885 92.7825 26.9559 92.5884 27.1692C92.377 27.4028 92.2159 27.6776 92.1154 27.9762C91.996 28.3304 91.9381 28.7025 91.9444 29.0762V33.0382H90.5234Z" fill="white"/>
        <path d="M97.7462 23.3991C97.6274 23.4019 97.5092 23.3812 97.3984 23.3384C97.2875 23.2955 97.1862 23.2312 97.1002 23.1491C97.0133 23.0698 96.9443 22.9729 96.8979 22.8647C96.8515 22.7566 96.8288 22.6398 96.8312 22.5221C96.8293 22.4032 96.8523 22.2852 96.8986 22.1757C96.9449 22.0662 97.0136 21.9675 97.1002 21.8861C97.1847 21.8017 97.2852 21.7351 97.3958 21.6903C97.5064 21.6455 97.6249 21.6233 97.7442 21.6251C97.9824 21.6245 98.2111 21.7184 98.3802 21.8861C98.469 21.9663 98.5397 22.0645 98.5875 22.1742C98.6352 22.2839 98.659 22.4025 98.6572 22.5221C98.6596 22.6405 98.636 22.758 98.5881 22.8663C98.5403 22.9746 98.4693 23.0711 98.3802 23.1491C98.209 23.311 97.9819 23.4005 97.7462 23.3991ZM97.0292 33.0351V25.3751H98.4642V33.0381L97.0292 33.0351Z" fill="white"/>
        <path d="M101.431 23.4001C101.191 23.4042 100.96 23.3132 100.787 23.1471C100.7 23.0678 100.631 22.9709 100.584 22.8627C100.538 22.7546 100.515 22.6378 100.518 22.5201C100.516 22.4012 100.539 22.2832 100.585 22.1737C100.631 22.0642 100.7 21.9656 100.787 21.8841C100.958 21.7168 101.188 21.623 101.427 21.623C101.666 21.623 101.896 21.7168 102.067 21.8841C102.156 21.9643 102.226 22.0625 102.274 22.1722C102.322 22.2819 102.346 22.4005 102.344 22.5201C102.346 22.6385 102.323 22.756 102.275 22.8643C102.227 22.9726 102.156 23.0691 102.067 23.1471C101.895 23.3106 101.668 23.4012 101.431 23.4001ZM100.714 33.0361V25.3761H102.149V33.0391L100.714 33.0361Z" fill="white"/>
    </g>
    <defs>
        <clipPath id="clip0_2612_87895">
            <rect width="120" height="40" fill="white"/>
        </clipPath>
    </defs>
</svg>
