<svg width="120" height="40" fill="none" xmlns="http://www.w3.org/2000/svg"><path d="M31.6 24.42c1.97-2.07 2.84-5.32 2.84-7.61 0-1.96-.33-3.25-.68-4.42a8.52 8.52 0 0 0-2.08-3.58c-.6-.62-1.54-1.43-3.13-2.11-1.59-.68-3.44-1.44-7.82-1.44-3.19 0-6.98 1.05-9.22 2.07-3.99 1.83-6.53 3.68-6.53 3.68v1.26l.13.03c.55.12 2.29.2 2.29 1.84 0 .36-.97 5.2-.97 9.82 0 5.13 1.22 8.92 1.22 8.92s.82.38 3.22.82c2.74.5 4.52.33 4.52.33s-.8-5.66-.16-6.18c.15-.12.45-.14.66.34.35.81 1.57 2.62 3.58 4.4.63.55 1.72 1.14 2.45 1.4.73.26 1.7.58 2.84.66.72.06 2.24.11 3.25 0 .89-.1 1.81-.23 2.51-.37.33-.07.66-.15.98-.25v-1.12a7.13 7.13 0 0 1-2.54-.85c-.98-.54-2.2-1.76-2.69-2.39-.38-.48-.93-1.24-.65-1.39 1.54-.47 3.77-1.53 5.98-3.86zm-11.68-.53s-.01 0-.01-.01l-.01.01c-4.32-3.22-5.2-6.38-5.2-8.64 0-2.87 2.33-5.2 5.2-5.2h.02c2.87 0 5.2 2.33 5.2 5.2.01 2.26-.88 5.43-5.2 8.64z" fill="url(#paint0_linear_2729_57266)"/><path d="M19.91 17.49a2.19 2.19 0 1 1 2.19-2.19c.01 1.2-.97 2.19-2.19 2.19.01 0 .01 0 0 0zm22 1.01V8.23h1.5v4.32h4.88V8.23h1.5V18.5h-1.5v-4.68h-4.88v4.68h-1.5zm10.53-6.98c.26-.13.5-.25.73-.35.22-.1.45-.19.68-.25.23-.07.46-.11.7-.15.26-.03.52-.05.78-.05.39 0 .78.04 1.17.14.34.08.65.24.91.46.27.23.47.53.6.86.15.43.23.88.21 1.33v4.99h-1.19l-.18-.85h-.03c-.31.34-.69.6-1.11.77-.43.16-.88.23-1.34.23-.35.01-.69-.04-1.02-.15-.29-.09-.57-.24-.81-.44-.23-.19-.41-.42-.53-.69-.13-.29-.19-.6-.19-.91 0-.8.32-1.42.95-1.83.63-.41 1.48-.63 2.52-.63h1.47v-.65c0-.55-.14-.93-.42-1.13-.28-.2-.66-.3-1.14-.3-.33.01-.65.05-.97.14-.44.12-.86.3-1.25.53l-.54-1.07zm4.35 3.44l-1.21.03c-.82.02-1.4.17-1.74.43-.34.26-.51.59-.51.97-.01.2.03.4.11.58.07.15.17.27.3.37.13.09.28.15.44.19.17.04.35.06.53.06.38 0 .75-.09 1.09-.25.39-.18.72-.46.98-.81l.01-1.57zm3.83 3.54v-7.66h1.08l.25 1.53c.18-.48.5-.89.91-1.19.43-.31.94-.47 1.47-.46.41-.01.83.06 1.21.23l-.28 1.26c-.14-.07-.28-.12-.43-.16-.18-.05-.37-.07-.56-.06-.3 0-.59.05-.87.16-.27.11-.51.28-.7.49-.21.23-.37.51-.47.81-.12.35-.18.73-.17 1.1v3.95h-1.44zm11.43-6.58H69.8v4.45c0 .38.1.64.28.77.22.14.48.21.74.2.24 0 .48-.03.72-.07.23-.04.46-.1.68-.17l.23 1.09c-.27.1-.55.18-.83.23-.35.07-.7.1-1.06.1-.76 0-1.31-.17-1.66-.5-.35-.33-.52-.81-.52-1.44v-4.65h-1.14v-1.08h1.14V8.39h1.42v2.45h2.25v1.08zm2.56-.4c.26-.13.5-.25.73-.35.22-.1.45-.18.68-.25.23-.07.46-.11.7-.15.26-.03.52-.05.78-.05.39 0 .78.04 1.17.14.34.08.65.24.91.46.27.23.47.53.6.86.15.43.22.88.21 1.33v4.99H79.2l-.18-.85H79c-.31.34-.69.6-1.11.77-.43.16-.88.23-1.34.23a3.2 3.2 0 0 1-1.02-.16c-.29-.1-.57-.24-.81-.44-.23-.19-.41-.42-.53-.69-.13-.29-.19-.6-.19-.91 0-.8.32-1.42.95-1.83.64-.42 1.48-.63 2.52-.63h1.47v-.65c0-.55-.14-.93-.42-1.13-.28-.2-.66-.3-1.14-.3-.33.01-.65.05-.97.14-.44.12-.86.3-1.25.53l-.55-1.06zm4.35 3.44l-1.21.03c-.82.02-1.39.17-1.74.43-.34.27-.51.59-.51.97-.01.2.03.4.11.58.07.15.17.27.3.37.13.09.28.15.44.19.17.04.35.06.53.06.82-.01 1.59-.4 2.07-1.06l.01-1.57zm-37.05 7.81h3.34c.48-.01.96.07 1.41.23.38.14.73.35 1.02.64.27.27.49.6.62.97.15.39.22.81.21 1.23.01.36-.06.72-.18 1.06-.11.3-.27.58-.47.82-.19.23-.42.43-.68.6-.24.16-.5.3-.78.42l2.71 4.3h-1.68L45 29.01h-1.68v4.03H41.9V22.77h.01zm1.41 5.02h1.24c.32 0 .63-.03.94-.11.27-.06.52-.17.75-.33.21-.15.39-.35.51-.58.13-.27.2-.57.19-.86 0-.66-.18-1.15-.55-1.47-.36-.32-.89-.47-1.59-.47h-1.48v3.82h-.01zm13.72 1.58h-5.5v.06c0 .85.23 1.5.69 1.96.46.46 1.09.68 1.88.69.37 0 .74-.03 1.1-.1.36-.08.71-.19 1.05-.32l.29 1.06c-.36.16-.73.27-1.12.34-.45.09-.92.13-1.38.13-.53 0-1.05-.07-1.56-.23a3.66 3.66 0 0 1-1.28-.71 3.33 3.33 0 0 1-.87-1.23c-.22-.57-.33-1.18-.32-1.79-.01-.56.08-1.11.27-1.63a3.384 3.384 0 0 1 1.94-2.05c.5-.2 1.02-.29 1.56-.29.45-.01.91.08 1.33.24a2.927 2.927 0 0 1 1.67 1.75c.16.44.23.9.23 1.37l.02.75zm-1.49-1.03c0-.27-.03-.53-.1-.79-.07-.23-.18-.45-.33-.65-.15-.19-.34-.34-.56-.44-.26-.12-.55-.17-.83-.16-.6 0-1.09.19-1.46.57-.37.38-.6.88-.69 1.5l3.97-.03zm7.39 3.74c.31.01.62-.03.91-.11.26-.08.52-.17.77-.29l.31 1.08c-.59.29-1.29.44-2.1.44-.53 0-1.05-.08-1.56-.25-.47-.16-.91-.41-1.27-.74a3.55 3.55 0 0 1-.86-1.24c-.22-.55-.32-1.14-.31-1.74-.01-.56.09-1.12.29-1.65.18-.47.46-.89.82-1.25.36-.35.79-.62 1.26-.79.52-.19 1.06-.28 1.61-.28.33 0 .66.02.99.07.38.07.75.19 1.1.35l-.33 1.09a3.15 3.15 0 0 0-1.61-.42c-.79 0-1.43.25-1.92.74s-.73 1.19-.73 2.08c-.01.47.06.94.23 1.39.13.34.33.64.6.89.24.22.53.38.85.48.3.1.62.15.95.15zm4.56-8.68c-.24 0-.47-.09-.64-.25a.832.832 0 0 1-.27-.63c0-.24.09-.47.27-.64a.9.9 0 0 1 .64-.26.9.9 0 0 1 .64.26c.18.16.28.39.28.64 0 .24-.1.47-.28.63-.18.16-.4.25-.64.25zm-.72 9.64v-7.66h1.43v7.66h-1.43zm7.5-.96c.31.01.62-.03.91-.11.26-.08.52-.17.77-.29l.31 1.08c-.59.29-1.29.44-2.1.44-.53 0-1.06-.08-1.56-.25-.47-.16-.91-.41-1.27-.74-.37-.35-.67-.77-.85-1.24-.22-.55-.32-1.14-.31-1.74-.01-.56.09-1.12.29-1.65.36-.95 1.12-1.69 2.07-2.04.52-.19 1.06-.28 1.61-.28.33 0 .66.02.99.07.38.07.75.19 1.1.35l-.33 1.09a3.15 3.15 0 0 0-1.61-.42c-.79 0-1.44.25-1.92.74s-.73 1.19-.73 2.08c-.01.47.06.94.23 1.39.13.34.33.64.6.89.24.22.53.38.85.48.3.1.63.15.95.15zm4.03.96V21.46h1.4v11.58h-1.4zm4.08-6.98c.26-.13.51-.25.73-.35.22-.1.45-.19.68-.25.23-.07.46-.11.7-.15.26-.03.52-.05.78-.05.39 0 .79.04 1.17.14.34.08.65.24.91.46.27.23.47.53.6.86.15.43.23.88.21 1.33v4.99h-1.19l-.18-.85h-.03c-.31.34-.69.6-1.11.77a3.816 3.816 0 0 1-2.36.08c-.29-.09-.57-.24-.81-.44-.23-.19-.41-.42-.53-.69-.13-.29-.19-.6-.19-.91 0-.8.32-1.42.95-1.83.64-.42 1.48-.63 2.52-.63h1.47v-.65c0-.55-.14-.93-.42-1.13-.28-.2-.66-.3-1.14-.3-.33.01-.65.05-.97.14-.44.12-.86.3-1.25.53l-.54-1.07zm1.77-4.11c.03.3.12.58.28.83.15.21.44.31.89.31.38 0 .66-.1.84-.29.18-.19.29-.48.33-.85h1.01c.02.54-.19 1.06-.56 1.45-.38.38-.92.57-1.62.57-.34.01-.68-.05-1-.17-.26-.1-.49-.26-.68-.46-.18-.19-.31-.41-.39-.65a2.34 2.34 0 0 1-.12-.74h1.02zm2.58 7.55l-1.21.03c-.82.02-1.39.17-1.74.43-.34.27-.51.59-.51.97-.01.2.03.4.11.58.07.15.17.27.3.37.13.09.28.15.44.19.17.04.35.06.53.06.38 0 .75-.09 1.09-.25.39-.18.72-.46.98-.81l.01-1.57zm3.78 3.54v-7.66h1.08l.25 1.53c.18-.48.5-.89.91-1.19.43-.31.94-.47 1.47-.46.41-.01.83.06 1.21.23l-.28 1.26c-.14-.07-.28-.12-.43-.16-.18-.05-.37-.07-.56-.06-.3 0-.59.05-.87.16-.27.11-.51.28-.7.49-.21.23-.37.51-.47.81-.12.35-.18.73-.17 1.1v3.96l-1.44-.01zm7.23-9.64a.888.888 0 0 1-.65-.25.832.832 0 0 1-.27-.63c0-.24.09-.47.27-.64a.9.9 0 0 1 .64-.26.9.9 0 0 1 .64.26c.18.16.28.39.28.64 0 .24-.1.47-.28.63-.17.16-.4.25-.63.25zm-.72 9.64v-7.66h1.43v7.66h-1.43zm4.4-9.64c-.24 0-.47-.09-.64-.25a.832.832 0 0 1-.27-.63c0-.24.09-.47.27-.64.36-.35.92-.35 1.28 0 .18.16.28.39.28.64 0 .24-.1.47-.28.63-.17.16-.4.25-.64.25zm-.72 9.64v-7.66h1.43v7.66h-1.43z" fill="#002A54"/><defs><linearGradient id="paint0_linear_2729_57266" x1="7.761" y1="33.006" x2="31.815" y2="8.952" gradientUnits="userSpaceOnUse"><stop offset=".3" stop-color="#008739"/><stop offset=".37" stop-color="#098B39"/><stop offset=".49" stop-color="#219537"/><stop offset=".64" stop-color="#49A636"/><stop offset=".82" stop-color="#80BD33"/><stop offset="1" stop-color="#BFD730"/></linearGradient></defs></svg>