<svg fill="none" height="23" width="17" xmlns="http://www.w3.org/2000/svg"><path clip-rule="evenodd" d="M6.544 8.158a1.956 1.956 0 1 1 3.912 0 1.956 1.956 0 0 1-3.912.001zm5.303 0a3.347 3.347 0 1 0-6.694.001 3.347 3.347 0 0 0 6.694 0zM6.846 18.206H5.222a.696.696 0 0 0 0 1.392h6.556a.696.696 0 0 0 0-1.392h-1.624a43.928 43.928 0 0 0 1.492-1.64h1.669a.146.146 0 0 1 .146.1l1.797 4.355a.158.158 0 0 1-.146.218H1.888a.158.158 0 0 1-.146-.218l1.797-4.356a.146.146 0 0 1 .146-.098h1.668c.488.566.991 1.112 1.493 1.64zM4.322 3.485C-.06 7.866 4.107 13.432 8.5 17.914c4.393-4.482 8.56-10.048 4.178-14.43a5.915 5.915 0 0 0-8.356 0zm-2.07 12.649L.457 20.489a1.55 1.55 0 0 0 1.432 2.14h13.224a1.55 1.55 0 0 0 1.432-2.14l-1.797-4.355a1.525 1.525 0 0 0-1.432-.959h-.537a19.45 19.45 0 0 0 2.056-3.26c.813-1.67 1.177-3.258 1.08-4.718-.115-1.736-.873-3.316-2.252-4.695a7.32 7.32 0 0 0-10.324 0C1.96 3.881 1.202 5.461 1.088 7.197c-.097 1.461.266 3.05 1.079 4.72a19.45 19.45 0 0 0 2.055 3.259h-.537a1.525 1.525 0 0 0-1.432.958z" fill="#000" fill-rule="evenodd"/></svg>