<svg fill="none" height="20" viewBox="0 0 27 27" width="20" xmlns="http://www.w3.org/2000/svg"><path d="M26.25 9.071a.964.964 0 1 0-1.818.642c.424 1.201.64 2.474.64 3.787 0 1.662-.36 3.24-.993 4.67-3.035-1.819-6.742-2.819-10.579-2.819-3.837 0-7.544 1-10.579 2.818a11.493 11.493 0 0 1-.992-4.67c0-6.38 5.19-11.57 11.571-11.57a11.55 11.55 0 0 1 8.722 3.978.966.966 0 0 0 1.456-1.266A13.479 13.479 0 0 0 13.5 0C6.056 0 0 6.056 0 13.5c0 2.388.63 4.63 1.722 6.578.005.008.005.017.01.025.004.004.009.006.012.01C4.062 24.218 8.459 27 13.5 27c5.042 0 9.44-2.783 11.758-6.889.002-.003.007-.004.01-.008.005-.008.005-.018.01-.025A13.407 13.407 0 0 0 27 13.5c0-1.532-.252-3.022-.75-4.429zm-12.75 16c-4.03 0-7.581-2.073-9.654-5.207C6.594 18.2 9.98 17.28 13.5 17.28c3.52 0 6.905.919 9.654 2.584-2.073 3.134-5.624 5.207-9.654 5.207z" fill="#000"/><path d="M8.805 8.634a4.7 4.7 0 0 0 4.694 4.694 4.7 4.7 0 0 0 4.693-4.694A4.699 4.699 0 0 0 13.5 3.94a4.699 4.699 0 0 0-4.694 4.694zm7.459 0a2.769 2.769 0 0 1-2.766 2.765 2.769 2.769 0 0 1-2.765-2.765 2.768 2.768 0 0 1 2.765-2.765 2.768 2.768 0 0 1 2.766 2.765z" fill="#000"/></svg>