<svg width="20" height="20" viewBox="0 0 25 22" fill="none" xmlns="http://www.w3.org/2000/svg"><path d="M2.273.579v.678c-.583-.092-1.215-.099-1.758-.099A.596.596 0 0 0 0 1.737v17.95c0 .352.376.65.71.561 1.012-.258 2.9-.347 5.016-.1 2.117.248 4.478.823 6.534 1.801.16.074.352.067.506-.018 1.744-.957 4.107-1.535 6.295-1.782 2.187-.248 4.227-.156 5.229.1.334.087.71-.21.71-.562V1.737c0-.303-.27-.579-.568-.579a11.496 11.496 0 0 0-1.705.1V.579c0-.303-.27-.579-.568-.579-2.39 0-6.687 1.105-9.659 2.832C9.528 1.105 5.23 0 2.841 0c-.35.013-.561.33-.568.579zm1.136.633c2.168.147 6 1.148 8.523 2.597v14.973c-3.426-1.578-6.384-1.928-8.523-1.972V1.212zm18.182 0V16.81c-2.138.045-5.097.394-8.522 1.973V3.809c2.522-1.45 6.355-2.45 8.522-2.597zM1.137 2.334c.396-.019.76.035 1.136.109V17.37c0 .303.27.58.568.58 2.226 0 5.522.274 9.402 2.252a.568.568 0 0 0 .515 0c3.88-1.977 7.176-2.253 9.401-2.253.298 0 .568-.276.568-.579V2.443c.39-.1.772-.11 1.137-.109v16.71c-1.276-.209-2.973-.266-4.927-.044-2.195.248-4.545.802-6.455 1.79-2.139-.974-4.5-1.541-6.631-1.79-1.883-.22-3.476-.16-4.714.045V2.335zm2.84 1.43v1.158c2.179 0 4.879.563 6.712 2.298l.782-.842C9.327 4.35 6.345 3.764 3.978 3.764zm17.046 0c-2.367 0-5.349.586-7.493 2.614l.781.842c1.834-1.735 4.534-2.298 6.712-2.298V3.764zM3.978 6.659v1.158c2.178 0 4.878.563 6.711 2.298l.782-.842C9.327 7.245 6.345 6.66 3.978 6.66zm17.045 0c-2.367 0-5.349.586-7.493 2.615l.781.841c1.834-1.735 4.534-2.298 6.712-2.298V6.659zM3.978 9.554v1.158c2.178 0 4.878.563 6.711 2.298l.782-.841C9.327 10.14 6.345 9.554 3.978 9.554zm17.045 0c-2.367 0-5.349.586-7.493 2.615l.781.841c1.834-1.735 4.534-2.298 6.712-2.298V9.554zM3.978 12.45v1.158c2.178 0 4.878.563 6.711 2.298l.782-.841c-2.144-2.029-5.126-2.615-7.493-2.615zm17.045 0c-2.367 0-5.349.586-7.493 2.615l.781.841c1.834-1.735 4.534-2.298 6.712-2.298V12.45z" fill="#000"/></svg>