<svg fill="none" height="20" viewBox="0 0 24 24" width="20" xmlns="http://www.w3.org/2000/svg"><path d="M12 0C5.382 0 0 5.382 0 12s5.382 12 12 12 12-5.382 12-12S18.618 0 12 0zm0 22.8C6.045 22.8 1.2 17.955 1.2 12 1.2 6.045 6.045 1.2 12 1.2c5.955 0 10.8 4.845 10.8 10.8 0 5.955-4.845 10.8-10.8 10.8z" fill="#000"/><path d="M11.948 6.453a3.155 3.155 0 0 0-2.784 1.5 1.049 1.049 0 1 0 1.791 1.095c.195-.318.543-.51.925-.498.533.018.983.465 1.004.999.015.426-.222.813-.609.99-.9.408-1.479 1.332-1.479 2.352v.498a1.051 1.051 0 0 0 2.1 0v-.498c0-.195.1-.372.25-.438a3.133 3.133 0 0 0 1.838-2.982 3.15 3.15 0 0 0-3.033-3.018h-.003zm-.101 8.553a1.347 1.347 0 1 0 0 2.694 1.347 1.347 0 0 0 0-2.694z" fill="#000"/></svg>