<svg viewBox="0 0 64 85" xmlns="http://www.w3.org/2000/svg"><path d="m32 0c-4.2 0-8.37.83-12.25 2.43-3.88 1.61-7.41 3.96-10.38 6.93s-5.33 6.49-6.94 10.37c-1.61 3.88-2.43 8.04-2.43 12.24-.07 13.91 5.37 33.27 32 53.03 26.56-19.76 32-39.13 32-53.03 0-4.2-.82-8.35-2.43-12.23s-3.96-7.4-6.94-10.37c-2.97-2.97-6.5-5.32-10.38-6.93-3.88-1.61-8.05-2.43-12.25-2.43z" fill="#00ad4d"/><path d="m32 45.65c-2.66 0-5.27-.79-7.48-2.27s-3.94-3.58-4.96-6.04-1.29-5.16-.77-7.77 1.8-5.01 3.69-6.89c1.88-1.88 4.28-3.16 6.9-3.68 2.61-.52 5.32-.25 7.78.77s4.56 2.74 6.04 4.95 2.27 4.81 2.27 7.47c0 3.57-1.42 6.99-3.95 9.51s-5.95 3.94-9.52 3.94z" fill="#fff"/></svg>