<svg width="18" height="18" fill="none" xmlns="http://www.w3.org/2000/svg"><path d="M9 .422C4.27.422.422 4.056.422 8.522c0 2.055.816 4.012 2.299 5.52l-.34.68a1.966 1.966 0 0 0 .273 2.175l.025.029a1.979 1.979 0 0 0 2.16.527l2.579-.968A9.114 9.114 0 0 0 9 16.624c4.73 0 8.578-3.634 8.578-8.101C17.578 4.056 13.73.422 9 .422zM3.473 15.268l.754-1.508-.126-.105c-1.562-1.309-2.457-3.18-2.457-5.133 0-3.792 3.3-6.878 7.356-6.878s7.357 3.086 7.357 6.878c0 3.793-3.3 6.88-7.357 6.88a7.885 7.885 0 0 1-1.627-.17l-.06-.013-2.903 1.089a.756.756 0 0 1-.823-.2.747.747 0 0 1-.113-.84z" fill="#000"/><path d="M10.788 11.403c-.635 1.178-1.488 1.816-1.902 1.909-.347.077-.673-.13-.662-1.212l.018-3.382c-.001-.322-.028-.443-.108-.425-.107.024-.459.396-.67.64l-.252-.309c.678-1.048 1.531-1.812 1.999-1.916.387-.086.568.35.554 1.292l-.06 3.322c-.01.395.067.49.147.472.107-.024.372-.28.651-.664l.285.273zM9.571 4.736c.119.534-.151 1.084-.739 1.215-.427.095-.776-.15-.874-.59-.116-.521.131-1.109.72-1.24.493-.11.807.227.893.615z" fill="#000"/></svg>