<svg width="18" height="18" fill="none" xmlns="http://www.w3.org/2000/svg"><path d="M9.485 7.24c.592 0 1.073.482 1.073 1.074a.422.422 0 1 0 .844 0c0-1.057-.86-1.917-1.917-1.917a.422.422 0 1 0 0 .844z" fill="#000"/><path d="M12.53 8.172a.422.422 0 1 0 .843 0 3.751 3.751 0 0 0-3.747-3.747.422.422 0 1 0 0 .844c1.601 0 2.903 1.302 2.904 2.903z" fill="#000"/><path d="M13.831 3.967a5.908 5.908 0 0 0-4.205-1.742.422.422 0 1 0 0 .844 5.07 5.07 0 0 1 3.609 1.495 5.069 5.069 0 0 1 1.494 3.608.422.422 0 1 0 .844 0 5.907 5.907 0 0 0-1.742-4.205zm.606 7.577l-2.522-1.318a.996.996 0 0 0-1.048.073l-1.64 1.14c-.915-.71-1.403-1.24-1.457-1.3a10.935 10.935 0 0 1-1.04-1.12L7.897 7.34a.999.999 0 0 0 .077-1.055L6.657 3.764a1.007 1.007 0 0 0-1.352-.428l-1.354.699a.422.422 0 0 0 .387.75l1.354-.699a.161.161 0 0 1 .217.07l1.317 2.52a.164.164 0 0 1-.017.177l-1.35 1.94c-.103.149-.1.349.01.495.56.74 1.15 1.303 1.275 1.42l.014.013.007.008c.157.17.751.787 1.799 1.57a.422.422 0 0 0 .493.008l1.898-1.32a.162.162 0 0 1 .17-.012l2.521 1.318c.079.04.11.138.069.217l-1.204 2.334a.166.166 0 0 1-.191.08c-3.426-1.046-5.728-3.492-5.98-3.768a.498.498 0 0 0-.03-.03c-.24-.215-2.381-2.203-3.433-5.645a.157.157 0 0 1-.003-.08.422.422 0 0 0-.826-.174c-.035.166-.027.339.023.5 1.097 3.595 3.335 5.718 3.66 6.014.471.513 2.815 2.913 6.342 3.99a1.006 1.006 0 0 0 1.187-.5l1.205-2.334a1.008 1.008 0 0 0-.428-1.353z" fill="#000"/></svg>