<svg width="24" height="24" fill="none" xmlns="http://www.w3.org/2000/svg"><rect width="24" height="24" rx="4" fill="#656565"/><path transform="translate(1 1)" fill="#656565" d="M0 0H22V22H0z"/><path fill-rule="evenodd" clip-rule="evenodd" d="M20.668 12.704l-7.964 7.964a.837.837 0 0 1-1.188 0l-7.964-7.964a.837.837 0 0 1 0-1.188l7.964-7.964a.837.837 0 0 1 1.188 0l7.964 7.964c.33.33.33.858 0 1.188zm-3.828-1.76c-.198-.198-2.574-2.618-2.684-2.728-.154-.154-.286-.066-.286.154v1.98H9.25c-.88 0-.88.88-.88.88v3.52h1.76v-2.2c0-.44.44-.44.44-.44h3.3v1.98c0 .22.154.286.264.176.176-.176 2.552-2.574 2.706-2.728.132-.154.132-.462 0-.594z" fill="#fff"/></svg>