<svg width="18" height="18" fill="none" xmlns="http://www.w3.org/2000/svg"><path d="M16.024 4.68c-.007-.014-.02-.022-.03-.035a8.226 8.226 0 0 0-14.003.026c-.01.016-.026.025-.036.041-.006.012-.005.025-.01.036a8.237 8.237 0 0 0 13.72 9.095.74.74 0 0 0 .13-.172v-.002a8.196 8.196 0 0 0 .241-8.955c-.006-.011-.005-.024-.012-.035zM9.002 15.75c-.602 0-1.38-1.137-1.846-3.078A12.11 12.11 0 0 1 9 12.502c.619.006 1.237.059 1.848.158-.465 1.949-1.245 3.09-1.848 3.09zM2.25 9a6.698 6.698 0 0 1 .675-2.923c.783.376 1.6.677 2.439.9-.17 1.508-.15 3.032.061 4.535-.786.203-1.553.476-2.29.816A6.702 6.702 0 0 1 2.25 9zM9 2.25c.651 0 1.51 1.331 1.954 3.577-.646.11-1.3.168-1.954.173a12.353 12.353 0 0 1-1.953-.185C7.493 3.577 8.35 2.25 9.001 2.25zM11.25 9c0 .73-.044 1.461-.134 2.186-.7-.116-1.407-.177-2.116-.184-.71.01-1.416.075-2.115.194A17.692 17.692 0 0 1 6.833 7.3c.716.123 1.44.19 2.168.201.726-.005 1.452-.07 2.168-.19.05.53.082 1.093.082 1.69zm1.388-1.999a13.19 13.19 0 0 0 2.43-.936 6.683 6.683 0 0 1-.209 6.272 13.319 13.319 0 0 0-2.281-.853c.113-.823.17-1.653.172-2.484a18.46 18.46 0 0 0-.112-1.999zm1.63-2.208c-.598.292-1.22.532-1.86.719a10.92 10.92 0 0 0-.916-2.78 6.773 6.773 0 0 1 2.777 2.06zm-7.76-2.06a10.896 10.896 0 0 0-.913 2.756 12.43 12.43 0 0 1-1.872-.687 6.776 6.776 0 0 1 2.785-2.07zM4.04 13.563c.54-.232 1.095-.424 1.662-.575.178.789.448 1.554.806 2.28a6.765 6.765 0 0 1-2.468-1.706zm7.452 1.704c.36-.734.633-1.508.812-2.306.565.16 1.118.362 1.653.604a6.765 6.765 0 0 1-2.466 1.702z" fill="#000"/></svg>