<svg width="18" height="18" fill="none" xmlns="http://www.w3.org/2000/svg"><path d="M10.901 5.338l.692-1.84a1.125 1.125 0 0 0-.63-1.44 5.361 5.361 0 0 0-3.92 0c-.563.22-.845.867-.63 1.44l.691 1.84c-2.796.821-4.849 3.409-4.849 6.474 0 4.5 4.557 4.5 6.75 4.5 2.194 0 6.75 0 6.75-4.5 0-3.06-2.053-5.647-4.848-6.474H10.9zm-1.339 8.055v.101c0 .31-.253.563-.562.563a.564.564 0 0 1-.563-.563v-.1a1.682 1.682 0 0 1-1.035-1.058.561.561 0 0 1 .36-.71.559.559 0 0 1 .71.36.563.563 0 0 0 .528.383c.31 0 .562-.253.562-.562A.564.564 0 0 0 9 11.244c-.928 0-1.688-.759-1.688-1.687 0-.731.473-1.35 1.125-1.586v-.102c0-.309.253-.562.563-.562.31 0 .562.253.562.562v.102c.478.168.867.55 1.035 1.057a.561.561 0 0 1-.36.709.559.559 0 0 1-.708-.36.563.563 0 0 0-.53-.383.564.564 0 0 0-.562.563c0 .31.253.562.563.562.928 0 1.687.76 1.687 1.688 0 .731-.472 1.35-1.125 1.586z" fill="#757575"/></svg>