<svg width="18" height="18" viewBox="0 0 16 16" fill="none" xmlns="http://www.w3.org/2000/svg"><path d="M4.7 9.76c.575 0 1.09-.25 1.452-.644l2.822 1.614a1.956 1.956 0 0 0-.094.57c0 1.092.888 1.98 1.98 1.98s1.98-.888 1.98-1.98-.888-1.98-1.98-1.98c-.575 0-1.09.251-1.452.644L6.586 8.351c.055-.182.094-.371.094-.571a1.97 1.97 0 0 0-.046-.417L9.746 5.91c.362.465.921.769 1.554.769 1.092 0 1.98-.888 1.98-1.98s-.888-1.98-1.98-1.98a1.982 1.982 0 0 0-1.934 2.397L6.255 6.57A1.97 1.97 0 0 0 4.7 5.8c-1.092 0-1.98.888-1.98 1.98s.888 1.98 1.98 1.98zm6.16.44c.607 0 1.1.494 1.1 1.1 0 .606-.493 1.1-1.1 1.1-.606 0-1.1-.494-1.1-1.1 0-.606.494-1.1 1.1-1.1zm.44-6.6c.607 0 1.1.494 1.1 1.1 0 .606-.493 1.1-1.1 1.1-.606 0-1.1-.494-1.1-1.1 0-.606.494-1.1 1.1-1.1zM4.7 6.68c.607 0 1.1.494 1.1 1.1 0 .606-.493 1.1-1.1 1.1-.606 0-1.1-.494-1.1-1.1 0-.606.494-1.1 1.1-1.1z" fill="#000"/></svg>