<svg width="18" height="18" fill="none" xmlns="http://www.w3.org/2000/svg"><path d="M16.938 9.144l-1.854-.252-1.062-1.854a1.618 1.618 0 0 0-1.404-.81h-2.034a.361.361 0 0 0-.36.36v3.69c0 .198-.162.36-.36.36H.81a.361.361 0 0 0-.36.36v1.098c0 .198.162.36.36.36h.81a1.608 1.608 0 0 0 3.204 0h8.352a1.608 1.608 0 0 0 3.204 0h.486c.396 0 .72-.324.72-.72V9.864c-.036-.36-.306-.666-.648-.72zM3.222 13.158a.845.845 0 1 1 0-1.692c.468 0 .846.378.846.846a.857.857 0 0 1-.846.846zm8.154-4.302v-1.62H12.6a.62.62 0 0 1 .522.306l.756 1.314h-2.502zm3.366 4.302a.845.845 0 1 1 0-1.692.845.845 0 1 1 0 1.692z" fill="#757575"/><path d="M.81 10.134h8.55c.198 0 .36-.162.36-.36V4.446a.361.361 0 0 0-.36-.36H.81a.361.361 0 0 0-.36.36v5.328c0 .198.162.36.36.36z" fill="#757575"/></svg>