<svg width="18" height="18" fill="none" xmlns="http://www.w3.org/2000/svg"><path d="M4.58 1.35a.45.45 0 0 0-.448.448v.472h-.768a1.56 1.56 0 0 0-1.551 1.555v11.27a1.56 1.56 0 0 0 1.551 1.556h11.271a1.56 1.56 0 0 0 1.552-1.555V3.825a1.56 1.56 0 0 0-1.552-1.555h-.763v-.472a.45.45 0 0 0-.901 0v.472H9.45v-.472a.45.45 0 0 0-.9 0v.472H5.028v-.472a.45.45 0 0 0-.448-.448zM3.364 3.17h.768v.472a.45.45 0 0 0 .448.452.45.45 0 0 0 .448-.452V3.17H8.55v.472a.45.45 0 1 0 .9 0V3.17h3.52v.472a.45.45 0 1 0 .902 0V3.17h.764c.369 0 .65.285.65.655V5.35H2.714V3.825c0-.37.282-.655.651-.655zm-.651 3.08h12.574v8.846c0 .37-.282.654-.652.654H3.365a.641.641 0 0 1-.652-.654V6.25zm6.289.85a3.908 3.908 0 0 0-3.9 3.9c0 2.148 1.752 3.9 3.9 3.9a3.905 3.905 0 0 0 3.896-3.9c0-2.148-1.749-3.9-3.896-3.9zm0 .9a2.991 2.991 0 0 1 2.996 3 2.99 2.99 0 0 1-2.996 2.999c-1.661 0-3-1.338-3-2.999s1.339-3 3-3zm-.226.996a.45.45 0 0 0-.449.452v1.96a.45.45 0 0 0 .449.452h1.329a.45.45 0 1 0 0-.9h-.878V9.448a.45.45 0 0 0-.451-.452z" fill="#000"/></svg>