<svg width="20" height="17" fill="none" xmlns="http://www.w3.org/2000/svg"><path d="M13.696 7.28L10 1.328h-.048L6.4 6.992l-.672-.432L9.28.896c.144-.24.432-.384.72-.384s.528.144.72.384l3.696 5.952-.72.432zm-5.328 8.448H1.552a.792.792 0 0 1-.72-.432.825.825 0 0 1 0-.816l3.6-5.76.672.432-3.6 5.76.048.048h6.864v.768h-.048zm10.08 0h-7.2v-.816h7.2l.384-.24-.336.192-3.456-5.568.672-.432 3.456 5.568a.825.825 0 0 1 0 .816c-.144.336-.384.48-.72.48z" fill="#000"/><path d="M12.16 16.784l-1.44-1.44 1.44-1.44.528.528-.864.912.864.864-.528.576zM4.672 10.64l-.24-1.248-1.2.24-.144-.768 2.016-.384.336 2.016-.768.144zm9.696-3.072l-2.016-.432.144-.768 1.248.24.24-1.2.768.144-.384 2.016zm-4.32 4.848A2.458 2.458 0 0 1 7.6 9.968a2.458 2.458 0 0 1 2.448-2.448 2.458 2.458 0 0 1 2.448 2.448 2.458 2.458 0 0 1-2.448 2.448zm0-4.08c-.912 0-1.632.72-1.632 1.632 0 .912.72 1.632 1.632 1.632.912 0 1.632-.72 1.632-1.632 0-.912-.72-1.632-1.632-1.632z" fill="#000"/></svg>