<svg xmlns="http://www.w3.org/2000/svg" viewBox="0 0 124 124"><path d="M119.41,76.82c-1.02-.44-1.26-.68-1.77-1.82l-.6-1.31,1.74-3.49c6.86-13.57,6.95-29.29.29-42.96C110.13,8.98,90.68-1.85,70.59.26c-9.4.99-18.34,4.75-25.85,10.85-1.16.94-2.23,1.72-2.33,1.72-.12,0-.36-.17-.56-.39-.82-.99-4.41-2.28-6.32-2.28-.61,0-1.09-.31-2.28-1.45-2.37-2.28-6.3-3.88-9.55-3.88-4.99,0-10.3,3.32-12.45,7.8-.48.99-.94,2.18-1.02,2.64-.22,1.04-.51,1.43-1.16,1.43-1.41.02-4.02,1.89-5.16,3.71-.85,1.33-1.36,3.61-1.16,5.14.39,3.17,2.69,6.01,5.62,6.9,1.48.46,2.25.48,11.36.48,5.38,0,9.79.07,9.79.15s-.27,1.07-.61,2.23c-2.57,8.96-2.33,19.38.65,28.27,1.07,3.22,2.96,7.37,4.53,9.91.99,1.6,1.02,1.67.58,2.13-.24.29-7.63,7.39-16.43,15.82-11.46,11-16.21,15.7-16.77,16.64-2.18,3.61-1.94,8.36.61,11.7,3.27,4.29,9.23,5.48,13.81,2.71.95-.56,5.65-5.31,16.65-16.77,8.43-8.79,15.53-16.18,15.82-16.43.46-.44.53-.41,2.13.58,7.08,4.34,16.5,7,24.96,7,6.71,0,14.42-1.65,19.72-4.19l1.58-.78,10.66-.12c10.54-.12,10.69-.12,11.92-.7,1.6-.7,3.47-2.69,4.09-4.26.61-1.62.61-4.19,0-5.81-.61-1.57-2.52-3.56-4.02-4.22ZM20.96,28.1c-8.5,0-10.76-.07-11.41-.34-1.65-.7-2.5-2.93-1.67-4.48.7-1.33,1.48-1.77,3.61-1.96,1.62-.17,1.96-.27,2.45-.82.32-.36.56-.97.56-1.36,0-4.22,3.1-8.16,7.2-9.21,1.36-.34,3.88-.12,5.5.51,1.41.51,2.88,1.77,4.82,4.09l.65.8,1.77-.15c1.31-.1,2.04-.05,2.93.27,1.82.63,1.89.97.58,2.5-1.58,1.84-4.07,5.64-5.33,8.09l-1.04,2.06h-10.61ZM34.39,96.78c-.65.65-5.45,5.67-10.66,11.14-5.23,5.48-9.96,10.2-10.52,10.54-.82.48-1.33.61-2.74.61-1.48,0-1.87-.1-2.91-.73-.73-.46-1.45-1.19-1.91-1.91-.63-1.04-.73-1.43-.73-2.91s.12-1.91.61-2.74c.34-.56,5.57-5.77,11.75-11.68l11.15-10.68,3.56,3.59,3.59,3.56-1.19,1.21ZM41.85,89.01l-2.98,3.08-3.46-3.46-3.49-3.46,3.08-3,3.08-2.98,1.67,1.82c.92,1.02,2.42,2.54,3.37,3.39l1.72,1.55-2.98,3.08ZM77.59,91.96c-23.09,1.02-42.86-15.94-45.38-38.96-.9-8.07.56-16.14,4.19-23.57,2.69-5.45,6.08-9.96,10.39-13.71,9.21-8.02,21.42-11.92,33.32-10.61,12.87,1.41,24.47,8.41,31.62,19.07,1.82,2.69,4.31,7.75,5.23,10.59,3.56,11.02,2.74,22.75-2.33,32.95-.61,1.19-1.16,2.25-1.26,2.35-.1.1-.73-.02-1.43-.29-.7-.27-1.62-.48-2.06-.48-1.38,0-1.5-.29-.75-1.48,1.82-2.88,3.63-7.78,4.51-12.14.78-3.92.78-10.51,0-14.42-3.15-15.77-15.14-27.76-30.89-30.89-3.56-.7-10.23-.78-13.74-.12-4.26.78-10.73,3.1-12.02,4.31-1.58,1.48-.51,4.09,1.67,4.09.32,0,1.5-.41,2.62-.94,2.5-1.14,5.26-2.04,8.12-2.62,3.22-.63,9.57-.58,12.87.12,6.93,1.5,12.09,4.31,17.16,9.38,5.06,5.06,7.87,10.2,9.38,17.15.75,3.56.75,9.91,0,13.42-.68,3.17-1.74,6.18-3.12,8.84l-1.09,2.11-1.38-.68c-3.49-1.77-7.29-2.08-10.81-.9-4.56,1.55-8.04,5.23-9.18,9.64-.29,1.19-.36,1.26-1.41,1.53-2.5.63-4.63,2.52-5.52,4.89-.27.73-.48,1.43-.48,1.57,0,.34-3.8.1-6.59-.44-12.04-2.28-22.27-11.36-25.95-23.02-1.14-3.61-1.48-5.96-1.48-10.27,0-5.57.82-9.5,3.03-14.27.53-1.11.95-2.37.95-2.79-.02-2.04-2.67-3.03-4.09-1.5-1.21,1.28-3.54,7.75-4.31,12.02-.58,3.17-.58,10.18,0,13.2,3.3,17.03,16.4,29.51,33.32,31.74,1.5.19,3.44.36,4.29.36,1.5,0,1.55.02,2.06.85.7,1.14,2.52,2.71,3.56,3.05,1.41.46.58.7-2.98.85ZM117.64,86.49c-.75.46-1.33.48-17.61.48-18.75,0-18,.07-19-1.65-1.43-2.5.39-5.14,3.54-5.14,2.13,0,2.71-.63,3.1-3.42.34-2.33.92-3.59,2.45-5.18,2.64-2.81,6.37-3.66,10.03-2.28,1.48.56,3.2,1.99,4.26,3.51.82,1.21,1.7,1.55,3.32,1.31,1.79-.29,3.1.15,4.41,1.43.99.94,1.21,1.33,1.45,2.54.36,1.79,1.26,2.81,2.47,2.81,1.57,0,3.1,1.5,3.1,3.03,0,.94-.65,2.01-1.53,2.54Z" fill="#d1d5db"/><path d="M48.73,20.69c-2.16,1.19-1.19,4.51,1.31,4.51.87,0,2.3-1.43,2.3-2.28,0-1.94-1.94-3.15-3.61-2.23Z" fill="#d1d5db"/><path d="M62.3,46.37c-2.11,1.16-1.21,4.51,1.19,4.51,1.24,0,2.42-1.19,2.42-2.4,0-1.82-2.01-3-3.61-2.11Z" fill="#d1d5db"/><path d="M74.41,46.37c-2.11,1.16-1.21,4.51,1.19,4.51,1.24,0,2.42-1.19,2.42-2.4,0-1.82-2.01-3-3.61-2.11Z" fill="#d1d5db"/><path d="M86.53,46.37c-2.11,1.16-1.21,4.51,1.19,4.51,1.24,0,2.42-1.19,2.42-2.4,0-1.82-2.01-3-3.61-2.11Z" fill="#d1d5db"/><path d="M32.09,14.57c-1.94-2.33-3.42-3.59-4.82-4.09-1.62-.63-4.14-.85-5.5-.51-4.09,1.04-7.2,4.99-7.2,9.21,0,.39-.24.99-.56,1.36-.48.56-.82.65-2.45.82-2.13.19-2.91.63-3.61,1.96-.82,1.55.02,3.78,1.67,4.48.65.27,2.91.34,11.41.34h10.61l1.04-2.06c1.26-2.45,3.76-6.25,5.33-8.09,1.31-1.53,1.24-1.87-.58-2.5-.9-.31-1.62-.36-2.93-.27l-1.77.15-.65-.8Z" fill="rgba(227,241,230,.5)"/><path d="M104.38,72.85c-1.07-1.53-2.79-2.96-4.26-3.51-3.66-1.38-7.39-.53-10.03,2.28-1.53,1.6-2.11,2.86-2.45,5.18-.39,2.79-.97,3.42-3.1,3.42-3.15,0-4.97,2.64-3.54,5.14.04.06.07.12.1.18.11.2.21.38.34.53.79.94,2.69.94,16.36.93h2.19c16.28,0,16.86-.02,17.62-.48.87-.53,1.53-1.6,1.53-2.54,0-1.53-1.53-3.03-3.1-3.03-1.21,0-2.11-1.02-2.47-2.81-.24-1.21-.46-1.6-1.45-2.54-1.31-1.28-2.62-1.72-4.41-1.43-1.62.24-2.5-.1-3.32-1.31Z" fill="rgba(227,241,230,.5)"/><path d="M44.81,85.98l-1.72-1.55c-.94-.85-2.45-2.37-3.37-3.39l-1.67-1.82-3.08,2.98-3.08,3,3.49,3.46,3.46,3.46,5.96-6.15Z" fill="rgba(227,241,230,.5)"/><path d="M23.71,107.98c5.21-5.47,10.01-10.49,10.66-11.14l1.19-1.21-3.59-3.56-3.56-3.59-11.15,10.68c-6.18,5.91-11.41,11.12-11.75,11.68-.48.82-.61,1.33-.61,2.74,0,1.48.1,1.86.73,2.91.46.73,1.19,1.45,1.91,1.91,1.04.63,1.43.73,2.91.73s1.91-.12,2.74-.61c.56-.34,5.28-5.06,10.52-10.54Z" fill="rgba(227,241,230,.5)"/></svg>