<svg viewBox="0 0 104 104" xmlns="http://www.w3.org/2000/svg"><path d="m17.29 89.97c.06-.04.12-.08.17-.12 0 0 .01-.01.02-.02 0 0 .01-.01.01-.01 6.01-4.72 6.82-10.49 6.82-15.51 0 0 0-.01 0-.02 0 0 0-.01 0-.02 0-.06 0-.12-.02-.18s0-.03 0-.05c0-.04-.01-.08-.02-.11 0-.04-.02-.08-.04-.12 0-.01 0-.03-.01-.04 0-.02-.01-.03-.02-.05-.01-.04-.02-.07-.04-.1-.02-.04-.04-.07-.05-.1 0-.01-.01-.03-.02-.04v-.02s-.02-.01-.02-.01c-.02-.04-.04-.08-.07-.11-.03-.04-.06-.07-.09-.11l-.02-.02s-.02-.02-.03-.03c-.02-.03-.05-.06-.07-.08-.03-.03-.06-.05-.09-.08-.01 0-.03-.02-.04-.03-.01 0-.02-.02-.03-.03-.03-.03-.06-.05-.1-.07-.03-.02-.07-.04-.1-.06h-.03s-.03-.03-.03-.03c-.05-.03-.1-.05-.15-.07h-.01s-.01 0-.02 0c-3.82-1.4-6.38-5.15-6.38-9.33v-25.08c0-1.4.96-2.31 2.46-2.31h.94v13.6c0 .94.76 1.7 1.7 1.7s1.7-.76 1.7-1.7v-16.64c0-1.39 1.28-2.56 2.79-2.56.21 0 .43.04.66.1 0 .07-.01.13-.02.19-.01.12-.03.25-.03.38v18.53c0 .94.76 1.7 1.7 1.7s1.7-.76 1.7-1.7v-18.53c0-1.3.8-2.62 2.33-2.62.55 0 1.2.14 1.89 1.15.21.31.31.78.31 1.47v2.65c0 .15.02.29.06.42-.74 1.01-1.19 2.29-1.19 3.72v11.72c0 .94.76 1.7 1.7 1.7s1.7-.76 1.7-1.7v-11.72c0-1.3.8-2.62 2.33-2.62.55 0 1.2.14 1.89 1.15.21.31.31.78.31 1.47v7.93c-2.01.99-3.4 3.03-3.4 5.39v6.34c0 .94.76 1.7 1.7 1.7s1.7-.76 1.7-1.7v-6.34c0-1.42 1.24-2.62 2.72-2.62s2.72 1.2 2.72 2.62v13.5c-.01 3.4-2.3 5.88-4.21 7.35-.52.4-1.51.6-2.46.8s-.13.03-.13.03c-.15.03-.28.08-.41.15-.89.05-1.6.78-1.6 1.69v1.1c0 .35.05.68.09 1.02.05.38.11.77.1 1.2-.04 6.29-.62 13.64-6.11 20.41-.23.29-.36.63-.38.99-5.46-2.3-10.44-5.52-14.74-9.46zm57.64 8.14c0-.32-.1-.63-.28-.9-4.29-6.49-5.16-13.54-5.16-22.14 0-.94-.76-1.7-1.7-1.7-.1 0-.19.01-.28.03-.01 0-.03 0-.04 0-.06 0-.11-.02-.17-.02-5.36 0-9.72-4.42-9.72-9.85v-4.33c0-3.13 1.98-5.08 5.17-5.08h13.5c.94 0 1.7-.76 1.7-1.7v-14.28c0-1.26.71-2.62 2.26-2.62s2.26 1.36 2.26 2.62v7.92c-1.99 1.05-3.39 3.07-3.39 5.29v6.18c0 .94.76 1.7 1.7 1.7s1.7-.76 1.7-1.7v-6.18c0-1.36 1.45-2.64 2.98-2.64s2.98 1.27 2.98 2.6l-.03 13.47c0 4.68-3.88 8.49-8.64 8.49s-8.74-3.98-8.74-8.68c0-.94-.76-1.7-1.7-1.7s-1.7.76-1.7 1.7c0 6.55 5.55 12.08 12.13 12.08 1.35 0 2.64-.23 3.85-.64.03 3.67.42 7.63 3.95 11.25.09.2.22.39.39.55.2.19.44.3.68.37-3.97 4.01-8.6 7.37-13.7 9.9zm-14.37-62.13c-1.41 0-2.99 1.01-2.99 2.47v13.81c.97-.68 2.12-1.16 3.41-1.39 0-.02 0-.04 0-.06 0-.03 0-.06 0-.1v-14.74h-.4zm3.8 14.74h3.4s0-19.5 0-19.5c0-.15.02-.3.04-.44 0-.07.02-.13.02-.2-.24-.06-.5-.1-.75-.1-1.47 0-2.71 1.2-2.71 2.63v17.62zm9.05-22.12c-1.56 0-2.26 1.36-2.26 2.62v19.5h3.4v-12.58c0-1.41.43-2.66 1.13-3.67v-3.25c0-1.26-.71-2.62-2.26-2.62z" fill="#e3f1e6"/><path d="m90.42 87.03c8.75-9.6 13.58-22.01 13.58-35.03 0-28.67-23.33-52-52-52s-52 23.33-52 52c0 14.19 5.61 27.44 15.79 37.32.01.01.03.02.04.03.14.13.3.24.48.31.03.01.06.13.09.15.18.06.37.22.56.22.16 0 .32-.15.48-.19.03 0 .06-.07.09-.08.15-.06.3-.16.43-.26.01 0 .02-.02.03-.03 5.95-4.66 6.75-10.36 6.75-15.32 0-.01 0-.03 0-.04 0-.06 0-.12-.02-.19 0-.05-.01-.1-.02-.15s-.03-.11-.05-.16-.03-.1-.05-.15-.05-.09-.08-.14-.05-.1-.08-.14c-.03-.05-.07-.09-.11-.13-.03-.04-.06-.08-.1-.11-.04-.04-.09-.07-.13-.11-.04-.03-.08-.07-.13-.1-.04-.03-.09-.05-.13-.07-.06-.03-.11-.06-.17-.08-.01 0-.02-.01-.03-.02-3.78-1.38-6.32-5.09-6.32-9.22v-24.77c0-1.39.95-2.28 2.43-2.28h.93v13.44c0 .93.75 1.68 1.68 1.68s1.68-.75 1.68-1.68v-16.43c0-1.37 1.26-2.53 2.76-2.53.2 0 .43.04.65.1-.02.19-.05.37-.05.57v18.3c0 .93.75 1.68 1.68 1.68s1.68-.75 1.68-1.68v-18.3c0-1.29.79-2.59 2.31-2.59.54 0 1.19.14 1.87 1.14.21.31.3.77.3 1.45v2.62c0 .15.02.28.06.42-.73 1-1.18 2.26-1.18 3.68v11.58c0 .93.75 1.68 1.68 1.68s1.68-.75 1.68-1.68v-11.58c0-1.29.79-2.59 2.31-2.59.54 0 1.19.14 1.87 1.14.21.31.3.77.3 1.45v7.84c-1.99.98-3.36 2.99-3.36 5.32v6.26c0 .93.75 1.68 1.68 1.68s1.68-.75 1.68-1.68v-6.26c0-1.4 1.23-2.59 2.69-2.59s2.69 1.19 2.69 2.59v13.34c-.01 3.36-2.28 5.8-4.17 7.26-.51.39-1.5.6-2.45.79l-.13.03c-.15.03-.28.08-.41.14-.88.05-1.58.78-1.58 1.67v1.09c0 .72.2 1.38.2 2.2-.04 6.22-.62 13.47-6.05 20.16-.34.42-.46.97-.32 1.5.14.52.52.94 1.02 1.13 5.91 2.26 12.15 3.4 18.54 3.4 7.63 0 14.98-1.61 21.85-4.8.44-.21.77-.6.91-1.07.13-.47.06-.98-.21-1.38-4.24-6.41-5.11-13.38-5.11-21.87 0-.93-.76-1.68-1.68-1.68-.1 0-.19.01-.28.03-.07 0-.14-.02-.21-.02-5.3 0-9.61-4.36-9.61-9.73v-4.28c0-3.09 1.96-5.01 5.12-5.01h13.35c.93 0 1.68-.75 1.68-1.68v-14.11c0-1.25.7-2.59 2.24-2.59s2.24 1.34 2.24 2.59v7.82c-1.96 1.04-3.36 3.04-3.36 5.22v6.1c0 .93.75 1.68 1.68 1.68s1.68-.75 1.68-1.68v-6.1c0-1.34 1.43-2.61 2.95-2.61s2.94 1.25 2.94 2.57l-.03 13.31c0 4.63-3.84 8.39-8.55 8.39s-8.64-3.93-8.64-8.58c0-.93-.75-1.68-1.68-1.68s-1.68.75-1.68 1.68c0 6.47 5.5 11.94 12 11.94 1.33 0 2.61-.23 3.81-.63.04 3.62.42 7.53 3.91 11.11.09.2.22.39.39.54.28.26.62.38.97.41.06 0 .11.04.17.04h.04.07c.43-.03.9-.2 1.2-.53.11-.12.2-.25.27-.39zm-32.77-34.67v-13.64c0-1.44 1.56-2.44 2.96-2.44h.4v14.56c0 .05.01.1.02.15-1.28.22-2.41.7-3.38 1.37zm6.71-1.53v-17.4c0-1.41 1.23-2.6 2.68-2.6.25 0 .5.04.74.1-.02.21-.06.41-.06.63v19.26h-3.36zm10.08 0h-3.36v-19.26c0-1.25.7-2.59 2.24-2.59s2.24 1.34 2.24 2.59v3.21c-.7.99-1.12 2.23-1.12 3.62zm12.32 23.3v-.04c2.87-2.15 4.74-5.54 4.74-9.36l.03-13.31c0-3.09-2.66-5.71-5.89-5.92v-7.1c0-3.39-2.41-5.95-5.6-5.95-.39 0-.76.04-1.12.11v-.99c0-3.39-2.41-5.95-5.6-5.95-1.81 0-3.35.84-4.36 2.17-.62-.2-1.27-.32-1.92-.32-3.15 0-5.72 2.4-5.99 5.44-.02 0-.03 0-.05 0h-.4c-3.43 0-6.32 2.65-6.32 5.8v24.77c0 6.81 5.19 12.42 11.79 13.03.09 6.79.86 13.86 4.6 20.41-5.92 2.47-12.23 3.72-18.73 3.72-5.22 0-10.38-.82-15.28-2.43 4.85-7.02 5.45-14.5 5.49-20.38 0-.74-.15-1.35-.18-1.99 1.11-.24 2.28-.56 3.24-1.29 3.53-2.71 5.47-6.23 5.47-9.92v-13.34c.01-3.06-2.35-5.58-5.37-5.91v-7.25c0-.87-.09-2.17-.88-3.33-1.17-1.74-2.74-2.62-4.65-2.62-.41 0-.81.04-1.19.12v-.89c0-.87-.09-2.17-.88-3.33-1.17-1.74-2.74-2.62-4.65-2.62s-3.43.86-4.45 2.22c-.6-.19-1.22-.3-1.82-.3-3.25 0-5.91 2.45-6.1 5.53 0 0-.01 0-.02 0h-.93c-3.35 0-5.79 2.37-5.79 5.64v24.77c0 5.11 2.93 9.74 7.4 11.89-.11 3.64-.89 7.36-4.32 10.6-8.84-9.12-13.7-21.06-13.7-33.82.03-26.81 21.85-48.63 48.67-48.63s48.64 21.82 48.64 48.64c0 11.69-4.16 22.87-11.74 31.69-2.26-2.91-2.14-6.03-2.14-9.56z" fill="#004667"/><path d="m62 17.52-5.85 5.33c-.68.62-.74 1.69-.11 2.37.33.36.79.55 1.24.55.41 0 .81-.14 1.13-.44l5.85-5.33c.68-.62.74-1.69.11-2.37-.63-.69-1.69-.73-2.37-.11zm-10.39-5.88c-.93 0-1.68.81-1.68 1.73l-.03 7.98c0 .93.74 1.49 1.67 1.49.92 0 1.68-.63 1.68-1.55l.03-7.8c0-.93-.74-1.84-1.67-1.84zm-10.44 5.79c-.68-.63-1.74-.59-2.37.09s-.59 1.74.09 2.37l5.81 5.38c.32.3.73.45 1.14.45.45 0 .9-.18 1.23-.54.63-.68.59-1.74-.09-2.37z" fill="#00ad4d"/></svg>