<svg width="651" height="866" viewBox="0 0 651 866" fill="none" xmlns="http://www.w3.org/2000/svg">
<path d="M5.81832 325.69L5.81839 325.675L5.81838 325.66C5.79695 283.665 14.05 242.077 30.1061 203.272C46.1621 164.467 69.7066 129.206 99.3941 99.5036C129.082 69.8009 164.331 46.2385 203.127 30.1626C241.924 14.0868 283.508 5.81249 325.503 5.8125C367.498 5.81249 409.082 14.0868 447.879 30.1626C486.675 46.2385 521.924 69.8009 551.612 99.5036C581.299 129.206 604.844 164.467 620.9 203.272C636.956 242.077 645.209 283.665 645.187 325.66V325.663C645.187 464.784 591.302 659.301 325.499 858.635C59.0335 659.296 5.16605 464.786 5.81832 325.69ZM246.156 446.739C269.643 462.432 297.256 470.808 325.503 470.808C363.381 470.808 399.708 455.761 426.492 428.977C453.276 402.193 468.323 365.866 468.323 327.988C468.323 299.741 459.947 272.128 444.254 248.641C428.56 225.155 406.255 206.849 380.158 196.039C354.061 185.23 325.345 182.401 297.64 187.912C269.936 193.423 244.488 207.025 224.514 226.999C204.54 246.973 190.938 272.421 185.427 300.125C179.916 327.83 182.745 356.546 193.554 382.643C204.364 408.74 222.67 431.045 246.156 446.739Z" fill="#02B2C5" stroke="#00A0B1" stroke-width="11.625"/>
<circle cx="325.375" cy="325.5" r="267.375" fill="white"/>
<path d="M252.689 241.143L252.687 241.143L236.777 246.014C248.825 231.153 264.22 219.259 281.756 211.344C302.906 201.798 326.324 198.429 349.307 201.625C372.29 204.821 393.9 214.453 411.643 229.407C429.377 244.354 442.524 264.01 449.567 286.108C450.376 288.794 451.71 291.292 453.492 293.459C455.281 295.636 457.486 297.434 459.978 298.749C462.469 300.064 465.198 300.869 468.005 301.117C470.811 301.365 473.639 301.052 476.323 300.196C479.007 299.339 481.494 297.956 483.637 296.128C485.781 294.299 487.539 292.062 488.808 289.547C490.078 287.032 490.833 284.289 491.031 281.478C491.227 278.681 490.867 275.872 489.971 273.215C482.629 250.198 470.334 229.068 453.95 211.311C437.559 193.545 417.473 179.588 395.107 170.42L395.107 170.42C323.011 140.875 242.142 165.948 198.368 226.377L193.222 209.521L193.221 209.519C191.576 204.139 187.861 199.633 182.893 196.993C177.926 194.352 172.113 193.792 166.733 195.438C164.069 196.252 161.592 197.584 159.443 199.356C157.293 201.128 155.514 203.306 154.206 205.765C152.899 208.225 152.088 210.918 151.822 213.691C151.555 216.464 151.837 219.262 152.651 221.926L152.651 221.926L172.784 287.743C172.784 287.744 172.784 287.746 172.785 287.747C172.785 287.747 172.785 287.748 172.785 287.748C173.597 290.412 174.926 292.891 176.696 295.041C178.467 297.194 180.645 298.975 183.105 300.285C185.565 301.595 188.259 302.407 191.034 302.675C193.808 302.943 196.608 302.661 199.273 301.847L199.273 301.846L265.095 281.713C265.095 281.713 265.095 281.713 265.095 281.713C267.759 280.898 270.236 279.567 272.386 277.795C274.535 276.023 276.314 273.845 277.622 271.385C278.929 268.926 279.74 266.232 280.006 263.46C280.273 260.687 279.991 257.889 279.177 255.225C278.362 252.561 277.031 250.084 275.259 247.934C273.487 245.785 271.309 244.006 268.849 242.698C266.389 241.39 263.696 240.58 260.924 240.313C258.151 240.046 255.352 240.328 252.689 241.143ZM400.888 475.308C425.349 464.174 446.688 447.268 463.1 426.094L466.716 440.58L466.728 440.625L466.74 440.669C468.205 446.012 471.702 450.569 476.484 453.366C481.265 456.164 486.952 456.979 492.327 455.638C497.702 454.297 502.339 450.906 505.246 446.191C508.153 441.475 509.1 435.809 507.884 430.405L507.874 430.359L507.863 430.314L491.205 363.549C491.205 363.548 491.205 363.547 491.205 363.546C490.176 359.413 487.927 355.686 484.75 352.849C481.598 350.036 477.679 348.228 473.494 347.656C469.279 346.897 464.935 347.435 461.035 349.196L398.756 364.736C396.016 365.359 393.427 366.52 391.14 368.153C388.839 369.794 386.89 371.88 385.407 374.286C383.923 376.692 382.936 379.37 382.502 382.163C382.069 384.956 382.198 387.807 382.882 390.55C383.566 393.292 384.792 395.87 386.486 398.132C388.181 400.394 390.311 402.294 392.75 403.722C395.19 405.149 397.89 406.074 400.693 406.443C403.479 406.809 406.31 406.619 409.021 405.882L428.93 400.913C417.335 415.611 402.509 427.516 385.549 435.649C365.348 445.337 342.885 449.323 320.585 447.179C298.284 445.035 276.992 436.842 259.007 423.483C241.022 410.124 227.027 392.108 218.531 371.378L218.53 371.375L214.057 360.486C214.057 360.485 214.057 360.485 214.057 360.484C213.001 357.907 211.448 355.564 209.487 353.587C207.526 351.609 205.194 350.038 202.625 348.961C197.437 346.788 191.597 346.764 186.392 348.896C183.814 349.952 181.47 351.504 179.492 353.466C177.515 355.428 175.943 357.759 174.867 360.328C173.791 362.897 173.231 365.653 173.22 368.439C173.208 371.224 173.746 373.984 174.801 376.562L174.802 376.564L179.276 387.473C179.276 387.473 179.276 387.473 179.276 387.474C190.559 415.006 209.059 438.985 232.826 456.885C256.593 474.786 284.748 485.945 314.326 489.188C343.903 492.43 373.807 487.635 400.888 475.308Z" fill="#02B2C5" stroke="#02B2C5" stroke-width="8"/>
</svg>
