<svg width="651" height="866" viewBox="0 0 651 866" fill="none" xmlns="http://www.w3.org/2000/svg">
<path d="M5.81832 325.69L5.81839 325.675L5.81838 325.66C5.79695 283.665 14.05 242.077 30.1061 203.272C46.1621 164.467 69.7066 129.206 99.3941 99.5036C129.082 69.8009 164.331 46.2385 203.127 30.1626C241.924 14.0868 283.508 5.81249 325.503 5.8125C367.498 5.81249 409.082 14.0868 447.879 30.1626C486.675 46.2385 521.924 69.8009 551.612 99.5036C581.299 129.206 604.844 164.467 620.9 203.272C636.956 242.077 645.209 283.665 645.187 325.66V325.663C645.187 464.784 591.302 659.301 325.499 858.635C59.0335 659.296 5.16605 464.786 5.81832 325.69ZM246.156 446.739C269.643 462.432 297.256 470.808 325.503 470.808C363.381 470.808 399.708 455.761 426.492 428.977C453.276 402.193 468.323 365.866 468.323 327.988C468.323 299.741 459.947 272.128 444.254 248.641C428.56 225.155 406.255 206.849 380.158 196.039C354.061 185.23 325.345 182.401 297.64 187.912C269.936 193.423 244.488 207.025 224.514 226.999C204.54 246.973 190.938 272.421 185.427 300.125C179.916 327.83 182.745 356.546 193.554 382.643C204.364 408.74 222.67 431.045 246.156 446.739Z" fill="#9DCB3B" stroke="#91C228" stroke-width="11.625"/>
<circle cx="325.5" cy="325.5" r="267.375" fill="white"/>
<g clip-path="url(#clip0_1476_29056)">
<path d="M506 262.297C506 352.226 456.746 427.742 382.742 452.211C368.652 457.792 353.331 460.972 337.257 460.972C291.624 460.972 249.226 435.301 227.781 394.548C189.72 429.655 179.469 469.782 179.293 470.555C177.444 478.297 170.518 483.5 162.889 483.5C161.593 483.5 160.269 483.346 158.95 483.038C149.887 480.86 144.297 471.732 146.47 462.676C153.218 434.903 210.082 303.488 382.228 303.488C388.438 303.5 393.5 298.437 393.5 292.25C393.5 286.062 388.438 281 382.25 281C306.734 281 252.172 305.328 213.704 334.156C213.84 326.548 214.577 318.8 216.19 310.918C225.661 264.645 262.624 227.246 308.58 216.558C328.5 211.945 347.73 212.331 365.484 216.555C404.859 225.92 448.593 211.343 470.461 173.495C474.443 166.585 484.537 166.804 487.8 174.078C499.461 199.972 506 231.711 506 262.297Z" fill="#9DCB3B"/>
</g>
<defs>
<clipPath id="clip0_1476_29056">
<rect width="360" height="360" fill="white" transform="translate(146 146)"/>
</clipPath>
</defs>
</svg>
