<svg width="651" height="866" viewBox="0 0 651 866" fill="none" xmlns="http://www.w3.org/2000/svg">
<path d="M5.81832 325.69L5.81839 325.675L5.81838 325.66C5.79695 283.665 14.05 242.077 30.1061 203.272C46.1621 164.467 69.7066 129.206 99.3941 99.5036C129.082 69.8009 164.331 46.2385 203.127 30.1626C241.924 14.0868 283.508 5.81249 325.503 5.8125C367.498 5.81249 409.082 14.0868 447.879 30.1626C486.675 46.2385 521.924 69.8009 551.612 99.5036C581.299 129.206 604.844 164.467 620.9 203.272C636.956 242.077 645.209 283.665 645.187 325.66V325.663C645.187 464.784 591.302 659.301 325.499 858.635C59.0335 659.296 5.16605 464.786 5.81832 325.69ZM246.156 446.739C269.643 462.432 297.256 470.808 325.503 470.808C363.381 470.808 399.708 455.761 426.492 428.977C453.276 402.193 468.323 365.866 468.323 327.988C468.323 299.741 459.947 272.128 444.254 248.641C428.56 225.155 406.255 206.849 380.158 196.039C354.061 185.23 325.345 182.401 297.64 187.912C269.936 193.423 244.488 207.025 224.514 226.999C204.54 246.973 190.938 272.421 185.427 300.125C179.916 327.83 182.745 356.546 193.554 382.643C204.364 408.74 222.67 431.045 246.156 446.739Z" fill="#1C6DF4" stroke="#1762DE" stroke-width="11.625"/>
<circle cx="325.5" cy="325.5" r="267.375" fill="white"/>
<path d="M200.419 242.811C209.46 242.811 213.814 246.369 218.366 251.049L267.643 301.724C272.443 306.646 274.837 312.55 274.837 319.321C274.837 334.457 262.236 344.824 250.031 344.824C243.631 344.824 237.802 342.452 232.915 337.428L225.225 329.522V421.333C225.225 454.222 175.612 454.222 175.612 421.333V329.522L167.922 337.428C163.036 342.452 157.206 344.824 150.806 344.824C138.602 344.824 126 334.47 126 319.321C126 312.55 128.394 306.646 133.194 301.724L182.273 251.253C186.341 247.07 191.377 242.811 200.419 242.811Z" fill="#1C6DF4"/>
<path d="M451.581 242.811C460.623 242.811 464.977 246.369 469.529 251.049L518.806 301.724C523.606 306.646 526 312.55 526 319.321C526 334.457 513.398 344.824 501.194 344.824C494.794 344.824 488.964 342.452 484.078 337.428L476.388 329.522V421.333C476.388 454.222 426.775 454.222 426.775 421.333V329.522L419.085 337.428C414.198 342.452 408.369 344.824 401.969 344.824C389.764 344.824 377.163 334.47 377.163 319.321C377.163 312.55 379.557 306.646 384.357 301.724L433.436 251.253C437.504 247.07 442.54 242.811 451.581 242.811Z" fill="#1C6DF4"/>
<path d="M326.31 151C335.352 151 339.705 154.558 344.257 159.238L393.535 209.912C398.335 214.834 400.729 220.738 400.729 227.509C400.729 242.646 388.127 253.013 375.922 253.013C369.522 253.013 363.693 250.641 358.806 245.617L351.116 237.711V453C351.116 485.889 301.504 485.889 301.504 453V237.711L293.814 245.617C288.927 250.641 283.098 253.013 276.698 253.013C264.493 253.013 251.891 242.658 251.891 227.509C251.891 220.738 254.285 214.834 259.085 209.912L308.164 159.442C312.233 155.259 317.268 151 326.31 151Z" fill="#1C6DF4"/>
</svg>
