<svg width="651" height="866" viewBox="0 0 651 866" fill="none" xmlns="http://www.w3.org/2000/svg">
<path d="M5.81832 325.69L5.81839 325.675L5.81838 325.66C5.79695 283.665 14.05 242.077 30.1061 203.272C46.1621 164.467 69.7066 129.206 99.3941 99.5036C129.082 69.8009 164.331 46.2385 203.127 30.1626C241.924 14.0868 283.508 5.81249 325.503 5.8125C367.498 5.81249 409.082 14.0868 447.879 30.1626C486.675 46.2385 521.924 69.8009 551.612 99.5036C581.299 129.206 604.844 164.467 620.9 203.272C636.956 242.077 645.209 283.665 645.187 325.66V325.663C645.187 464.784 591.302 659.301 325.499 858.635C59.0335 659.296 5.16605 464.786 5.81832 325.69ZM246.156 446.739C269.643 462.432 297.256 470.808 325.503 470.808C363.381 470.808 399.708 455.761 426.492 428.977C453.276 402.193 468.323 365.866 468.323 327.988C468.323 299.741 459.947 272.128 444.254 248.641C428.56 225.155 406.255 206.849 380.158 196.039C354.061 185.23 325.345 182.401 297.64 187.912C269.936 193.423 244.488 207.025 224.514 226.999C204.54 246.973 190.938 272.421 185.427 300.125C179.916 327.83 182.745 356.546 193.554 382.643C204.364 408.74 222.67 431.045 246.156 446.739Z" fill="#FD4F82" stroke="#F23C71" stroke-width="11.625"/>
<circle cx="325.5" cy="325.5" r="267.375" fill="white"/>
<path d="M485.975 207.601C467.963 187.951 441.763 176.489 415.563 174.851H412.288C379.538 174.851 350.063 191.226 330.413 217.426C312.4 183.039 278.013 161.751 240.35 161.751H238.713C210.875 161.751 183.038 173.214 165.025 194.501C145.375 214.151 135.55 241.989 137.188 269.826C140.463 318.951 165.025 343.514 187.95 364.801C214.15 391.001 238.713 412.289 230.525 474.514C230.525 484.339 235.438 490.889 243.625 490.889C246.9 490.889 248.538 490.889 253.45 489.251C423.75 436.851 513.813 366.439 513.813 287.839V286.201C515.45 255.089 505.625 228.889 485.975 207.601Z" fill="#FD4F82"/>
</svg>
