<svg width="651" height="866" viewBox="0 0 651 866" fill="none" xmlns="http://www.w3.org/2000/svg">
<path d="M5.81832 325.69L5.81839 325.675L5.81838 325.66C5.79695 283.665 14.05 242.077 30.1061 203.272C46.1621 164.467 69.7066 129.206 99.3941 99.5036C129.082 69.8009 164.331 46.2385 203.127 30.1626C241.924 14.0868 283.508 5.81249 325.503 5.8125C367.498 5.81249 409.082 14.0868 447.879 30.1626C486.675 46.2385 521.924 69.8009 551.612 99.5036C581.299 129.206 604.844 164.467 620.9 203.272C636.956 242.077 645.209 283.665 645.187 325.66V325.663C645.187 464.784 591.302 659.301 325.499 858.635C59.0335 659.296 5.16605 464.786 5.81832 325.69ZM246.156 446.739C269.643 462.432 297.256 470.808 325.503 470.808C363.381 470.808 399.708 455.761 426.492 428.977C453.276 402.193 468.323 365.866 468.323 327.988C468.323 299.741 459.947 272.128 444.254 248.641C428.56 225.155 406.255 206.849 380.158 196.039C354.061 185.23 325.345 182.401 297.64 187.912C269.936 193.423 244.488 207.025 224.514 226.999C204.54 246.973 190.938 272.421 185.427 300.125C179.916 327.83 182.745 356.546 193.554 382.643C204.364 408.74 222.67 431.045 246.156 446.739Z" fill="#00AD4D" stroke="#009B45" stroke-width="11.625"/>
<circle cx="325.5" cy="325.5" r="267.375" fill="white"/>
<path d="M349.294 135.641C353.605 128.29 361.215 121.645 369.87 117.038C368.19 116.809 366.527 116.707 364.905 116.707L280.484 116.705C264.283 116.705 244.403 128.015 236.305 141.864L192.265 217.101L274.283 263.805L349.294 135.641Z" fill="#00AD4D"/>
<path d="M360.222 141.852L329.979 193.509L365.475 254.191L343.133 266.918L429.799 270.697L469.813 194.736L447.471 207.463L409.073 141.856V141.834C404.804 134.552 397.273 127.968 388.746 123.38C377.893 125.289 365.243 133.239 360.221 141.851L360.222 141.852Z" fill="#00AD4D"/>
<path d="M146.773 390.772C138.165 390.761 128.526 387.577 120.162 382.491C120.799 384.04 121.54 385.514 122.345 386.898L164.551 459.03C172.655 472.86 192.529 484.2 208.73 484.2L296.791 484.215L296.785 390.77L146.773 390.772Z" fill="#00AD4D"/>
<path d="M207.205 378.321L242.718 317.653L265.06 330.381L225.046 254.434L138.361 258.224L160.703 270.957L122.322 336.568H122.305C118.041 343.861 116.031 353.593 116.269 363.167C123.376 371.483 136.676 378.313 146.75 378.302L207.205 378.321Z" fill="#00AD4D"/>
<path d="M528.685 346.301L484.662 271.054L402.655 317.776L477.649 445.965C481.94 453.321 483.969 463.158 483.69 472.845C484.727 471.518 485.653 470.153 486.464 468.771L528.675 396.639C536.773 382.784 536.785 360.146 528.682 346.306L528.685 346.301Z" fill="#00AD4D"/>
<path d="M436.516 400.46L365.499 400.449L365.511 374.998L318.852 447.163L365.522 519.342V493.88L442.302 493.869L442.325 493.88C450.857 493.88 460.398 490.731 468.687 485.741C472.43 475.505 471.779 460.726 466.735 452.117L436.516 400.46Z" fill="#00AD4D"/>
</svg>
