<svg width="651" height="866" viewBox="0 0 651 866" fill="none" xmlns="http://www.w3.org/2000/svg">
<path d="M5.81832 325.69L5.81839 325.675L5.81838 325.66C5.79695 283.665 14.05 242.077 30.1061 203.272C46.1621 164.467 69.7066 129.206 99.3941 99.5036C129.082 69.8009 164.331 46.2385 203.127 30.1626C241.924 14.0868 283.508 5.81249 325.503 5.8125C367.498 5.81249 409.082 14.0868 447.879 30.1626C486.675 46.2385 521.924 69.8009 551.612 99.5036C581.299 129.206 604.844 164.467 620.9 203.272C636.956 242.077 645.209 283.665 645.187 325.66V325.663C645.187 464.784 591.302 659.301 325.499 858.635C59.0335 659.296 5.16605 464.786 5.81832 325.69ZM246.156 446.739C269.643 462.432 297.256 470.808 325.503 470.808C363.381 470.808 399.708 455.761 426.492 428.977C453.276 402.193 468.323 365.866 468.323 327.988C468.323 299.741 459.947 272.128 444.254 248.641C428.56 225.155 406.255 206.849 380.158 196.039C354.061 185.23 325.345 182.401 297.64 187.912C269.936 193.423 244.488 207.025 224.514 226.999C204.54 246.973 190.938 272.421 185.427 300.125C179.916 327.83 182.745 356.546 193.554 382.643C204.364 408.74 222.67 431.045 246.156 446.739Z" fill="#F29901" stroke="#D78C07" stroke-width="11.625"/>
<circle cx="325.5" cy="325.5" r="267.375" fill="white"/>
<path d="M500.707 207.273C499.753 205.275 498.333 203.534 496.567 202.198C494.801 200.862 492.74 199.969 490.557 199.594C488.375 199.22 486.134 199.374 484.023 200.044C481.912 200.715 479.993 201.882 478.427 203.448L411.574 270.313L380.75 270.233L380.67 239.422L447.549 172.569C449.114 171.003 450.282 169.084 450.952 166.973C451.622 164.863 451.777 162.622 451.402 160.439C451.027 158.256 450.134 156.195 448.798 154.429C447.461 152.663 445.721 151.244 443.722 150.289C427.554 142.611 409.882 138.622 391.984 138.609C373.343 138.606 354.956 142.937 338.276 151.259C321.595 159.582 307.078 171.668 295.87 186.564C284.663 201.46 277.072 218.758 273.696 237.091C270.321 255.424 271.254 274.291 276.422 292.202L155.235 413.402C144.606 424.053 138.636 438.486 138.636 453.534C138.636 468.581 144.606 483.014 155.235 493.666L157.312 495.742C162.568 501.031 168.822 505.224 175.71 508.08C182.599 510.935 189.985 512.396 197.442 512.377C212.487 512.338 226.909 506.369 237.581 495.764L358.795 374.577C381.062 381 404.71 380.853 426.896 374.154C449.081 367.454 468.859 354.489 483.85 336.815C498.841 319.142 508.407 297.515 511.398 274.534C514.388 251.553 510.676 228.194 500.707 207.273ZM198.347 466.492C195.609 466.492 192.933 465.68 190.656 464.159C188.38 462.637 186.605 460.475 185.557 457.946C184.51 455.416 184.235 452.633 184.77 449.947C185.304 447.262 186.622 444.795 188.558 442.859C190.494 440.923 192.961 439.604 195.647 439.07C198.332 438.536 201.116 438.81 203.645 439.858C206.175 440.906 208.337 442.68 209.858 444.957C211.379 447.233 212.191 449.91 212.191 452.648C212.192 454.466 211.835 456.267 211.14 457.947C210.444 459.627 209.425 461.154 208.139 462.439C206.853 463.725 205.327 464.745 203.646 465.44C201.966 466.135 200.166 466.493 198.347 466.492Z" fill="#F29901"/>
</svg>
