<svg xmlns="http://www.w3.org/2000/svg" width="60" height="60"
     viewBox="0 0 60 60">
  <defs>
    <style>
      .cls-1, .cls-5 {
        fill: none;
      }

      .cls-2 {
        clip-path: url(#clip-path);
      }

      .cls-3 {
        fill: none;
      }

      .cls-4 {
        fill: #e3f1e6;
      }

      .cls-5 {
        stroke: #004667;
        stroke-linecap: round;
        stroke-linejoin: round;
      }
    </style>
    <clipPath id="clip-path">
      <rect class="cls-1" width="60" height="60"/>
    </clipPath>
  </defs>
  <title>punct_pubela_03</title>
  <g id="Layer_2" data-name="Layer 2">
    <g id="Layer_1-2" data-name="Layer 1">
      <g id="punct_pubela_03">
        <g class="cls-2">
          <rect class="cls-3" width="60" height="60"/>
          <polyline class="cls-4" points="18.6 49.38 8.48 49.38 6.83 26.23 20.88 26.23 20.88 43.83"/>
          <polyline class="cls-5" points="18.6 49.38 8.48 49.38 6.83 26.23 20.88 26.23 20.88 43.83"/>
          <rect class="cls-4" x="6" y="23.75" width="15.71" height="2.48"/>
          <rect class="cls-5" x="6" y="23.75" width="15.71" height="2.48"/>
          <g class="cls-2">
            <path class="cls-4" d="M17.37,46.9a3.1,3.1,0,1,1,3.1,3.1,3.1,3.1,0,0,1-3.1-3.1"/>
            <path class="cls-5" d="M17.37,46.9a3.1,3.1,0,1,1,3.1,3.1A3.1,3.1,0,0,1,17.37,46.9Z"/>
            <path class="cls-4" d="M40.21,16.67C24.89,16.67,26.47,50,26.47,50H54s1.58-33.33-13.74-33.33"/>
            <path class="cls-5" d="M40.21,16.67C24.89,16.67,26.47,50,26.47,50H54S55.53,16.67,40.21,16.67Z"/>
            <circle class="cls-5" cx="40.21" cy="27.27" r="3.29"/>
            <path class="cls-5" d="M41.82,14.9a1.61,1.61,0,1,1-1.61-1.6A1.6,1.6,0,0,1,41.82,14.9Z"/>
          </g>
        </g>
      </g>
    </g>
  </g>
</svg>
