<svg xmlns="http://www.w3.org/2000/svg" viewBox="0 0 32 32"><path d="M10.59,17.08c3.59,0,6.49-2.91,6.49-6.49s-2.91-6.49-6.49-6.49-6.49,2.91-6.49,6.49,2.91,6.49,6.49,6.49ZM22.12,28.61c3.59,0,6.49-2.91,6.49-6.49s-2.91-6.49-6.49-6.49-6.49,2.91-6.49,6.49,2.91,6.49,6.49,6.49ZM26.85,9.8c0,2.16-1.75,3.91-3.91,3.91s-3.91-1.75-3.91-3.91,1.75-3.91,3.91-3.91,3.91,1.75,3.91,3.91ZM9.84,26.81c2.16,0,3.91-1.75,3.91-3.91s-1.75-3.91-3.91-3.91-3.91,1.75-3.91,3.91,1.75,3.91,3.91,3.91Z" fill="#8549a2" fill-rule="evenodd"/></svg>