<svg xmlns="http://www.w3.org/2000/svg" viewBox="0 0 32 32"><path d="M9.32,4.1l4.49,4.49,1.42-1.42-.07,7.99-8,.07,1.42-1.42s-2.65-2.65-4.48-4.48h0s5.22-5.22,5.22-5.22ZM23.45,28.66l-4.49-4.49-1.42,1.42.07-7.99,8-.07-1.42,1.42s2.65,2.65,4.48,4.48c0,0,0,0,0,0,0,0,0,0,0,0l-5.22,5.22ZM24.18,13.81l4.49-4.49-5.22-5.22h0c-1.84,1.84-4.49,4.48-4.49,4.48l-1.42-1.42.07,7.99,8,.07-1.42-1.42ZM4.1,23.45l4.49-4.49-1.42-1.42,8,.07.07,7.99-1.42-1.42s-2.65,2.65-4.49,4.48h0s-5.22-5.22-5.22-5.22Z" fill="#9dcb3b"/></svg>