<svg xmlns="http://www.w3.org/2000/svg" viewBox="0 0 32 32"><path d="M27.25,8.41c-.06-.13-.15-.24-.27-.33-.11-.09-.25-.14-.39-.17-.14-.02-.28-.01-.42.03-.14.04-.26.12-.36.22l-4.29,4.29h-1.98s0-1.98,0-1.98l4.29-4.29c.1-.1.18-.22.22-.36.04-.14.05-.28.03-.42-.02-.14-.08-.27-.17-.39-.09-.11-.2-.2-.33-.27-1.04-.49-2.17-.75-3.32-.75-1.2,0-2.38.28-3.45.81-1.07.53-2,1.31-2.72,2.27-.72.96-1.21,2.07-1.42,3.24-.22,1.18-.16,2.39.17,3.54l-7.78,7.78c-.68.68-1.07,1.61-1.07,2.58s.38,1.89,1.07,2.58l.13.13c.34.34.74.61,1.18.79.44.18.92.28,1.4.28.97,0,1.89-.39,2.58-1.07l7.78-7.78c1.43.41,2.95.4,4.37-.03,1.42-.43,2.69-1.26,3.66-2.4.96-1.13,1.58-2.52,1.77-4,.19-1.48-.05-2.98-.69-4.32ZM8.66,24.51c-.04.11-.11.21-.19.29-.08.08-.18.15-.29.19-.11.04-.22.07-.34.07-.18,0-.35-.05-.49-.15s-.26-.24-.33-.4c-.07-.16-.08-.34-.05-.51.03-.17.12-.33.24-.46.12-.12.28-.21.46-.24s.35-.02.51.05c.16.07.3.18.4.33.1.15.15.32.15.49,0,.12-.02.23-.07.34Z" fill="#f29901"/></svg>