<svg xmlns="http://www.w3.org/2000/svg" viewBox="0 0 32 32"><path d="M28.23,17.69s0,0-.01-.01c-.02-.03-.04-.06-.08-.08-.02-.01-.04-.01-.05-.02,0,0-.01-.01-.02-.02l-15.34-3.84,6.04-3.04v1.81c0,.12.08.23.2.26.12.03.25-.02.3-.13l3.75-6.9c.06-.11.04-.24-.05-.32l-3.75-3.6c-.08-.07-.19-.1-.29-.05-.1.04-.16.14-.16.25v2.08L3.88,11.59c-.09.05-.15.14-.15.24v6s.01.09.04.13c0,0,0,0,.01.01.02.03.04.06.08.08.02,0,.03,0,.05.01,0,0,.01.01.02.02l15.3,3.82-3.36,1.68c-.07.03-.12.1-.14.17s0,.15.04.22l1.41,2.07-1.44,3.68c-.04.1-.01.22.07.3.05.05.12.07.18.07.04,0,.08,0,.12-.03l12-6c.09-.04.15-.14.15-.24v-6s-.01-.09-.04-.14ZM4.77,17.74l7.22-3.64,15.24,3.81-7.26,3.63-15.21-3.8Z" fill="#02b2c5"/></svg>