<svg xmlns="http://www.w3.org/2000/svg" viewBox="0 0 32 32"><path d="M17.55,4.25c.28-.47.77-.9,1.33-1.2-.11-.01-.22-.02-.32-.02h-5.45c-1.05,0-2.33.73-2.85,1.62l-2.84,4.85,5.29,3.01,4.84-8.27ZM18.26,4.65l-1.95,3.33,2.29,3.92-1.44.82,5.59.24,2.58-4.9-1.44.82-2.48-4.23h0c-.28-.47-.76-.9-1.31-1.19-.7.12-1.52.64-1.84,1.19h0ZM4.49,20.71c-.56,0-1.18-.21-1.72-.53.04.1.09.2.14.28l2.72,4.65c.52.89,1.81,1.62,2.85,1.62h5.68s0-6.03,0-6.03H4.49ZM8.38,19.91l2.29-3.91,1.44.82-2.58-4.9-5.59.24,1.44.82-2.48,4.23h0c-.28.47-.4,1.1-.39,1.72.46.54,1.32.98,1.97.98h3.9ZM29.12,17.84l-2.84-4.85-5.29,3.01,4.84,8.27c.28.47.41,1.11.39,1.73.07-.09.13-.17.18-.26l2.72-4.65c.52-.89.52-2.35,0-3.25h0ZM23.18,21.34h-4.58s0-1.64,0-1.64l-3.01,4.66,3.01,4.66v-1.64h4.95s0,0,0,0c.55,0,1.17-.2,1.7-.53.24-.66.2-1.61-.13-2.17l-1.95-3.33Z" fill="#00ad4d"/></svg>